<svg width="139" height="43" viewBox="0 0 139 43" fill="none" xmlns="http://www.w3.org/2000/svg">
<rect x="0.5" y="0.5" width="138" height="42" rx="4.5" fill="#DC7210" stroke="#DC7210"/>
<path d="M33.2031 23.9272C33.2031 24.5832 33.0442 25.1533 32.7263 25.6377C32.4084 26.1221 31.9443 26.4954 31.3337 26.7578C30.7283 27.0202 29.9916 27.1514 29.1238 27.1514C28.7403 27.1514 28.3644 27.1261 27.9961 27.0757C27.6328 27.0252 27.2821 26.9521 26.9441 26.8562C26.6111 26.7553 26.2932 26.6317 25.9905 26.4854V24.3057C26.5152 24.5378 27.0601 24.7472 27.6252 24.9338C28.1903 25.1205 28.7504 25.2139 29.3054 25.2139C29.6889 25.2139 29.9967 25.1634 30.2288 25.0625C30.4659 24.9616 30.6375 24.8228 30.7434 24.6462C30.8494 24.4696 30.9023 24.2678 30.9023 24.0408C30.9023 23.7633 30.809 23.5261 30.6223 23.3293C30.4356 23.1326 30.1783 22.9484 29.8503 22.7769C29.5274 22.6053 29.1616 22.4211 28.7529 22.2244C28.4956 22.1033 28.2156 21.9569 27.9128 21.7854C27.6101 21.6088 27.3225 21.3944 27.05 21.1421C26.7776 20.8898 26.5531 20.5846 26.3765 20.2263C26.2049 19.863 26.1191 19.4291 26.1191 18.9246C26.1191 18.2636 26.2705 17.6985 26.5732 17.2292C26.876 16.76 27.3074 16.4018 27.8674 16.1545C28.4325 15.9023 29.0986 15.7761 29.8655 15.7761C30.4407 15.7761 30.9881 15.8442 31.5078 15.9805C32.0326 16.1117 32.58 16.3034 33.1501 16.5557L32.3933 18.3796C31.8837 18.1728 31.4271 18.0138 31.0234 17.9028C30.6198 17.7868 30.2086 17.7288 29.7898 17.7288C29.4972 17.7288 29.2474 17.7767 29.0405 17.8726C28.8337 17.9634 28.6772 18.0946 28.5713 18.2661C28.4653 18.4326 28.4124 18.6269 28.4124 18.8489C28.4124 19.1112 28.488 19.3333 28.6394 19.5149C28.7958 19.6915 29.0279 19.863 29.3357 20.0295C29.6485 20.196 30.037 20.3903 30.5012 20.6123C31.0663 20.8797 31.5482 21.1597 31.9468 21.4524C32.3504 21.74 32.6607 22.0806 32.8777 22.4741C33.0946 22.8626 33.2031 23.347 33.2031 23.9272ZM38.5161 18.3796C39.2982 18.3796 39.9718 18.531 40.5369 18.8337C41.102 19.1314 41.5384 19.5653 41.8462 20.1355C42.154 20.7056 42.3079 21.4019 42.3079 22.2244V23.3445H36.8511C36.8763 23.9954 37.0706 24.5075 37.4338 24.8809C37.8022 25.2492 38.3118 25.4333 38.9626 25.4333C39.5025 25.4333 39.997 25.3778 40.446 25.2668C40.8951 25.1558 41.3568 24.9893 41.8311 24.7673V26.5535C41.4123 26.7603 40.9733 26.9117 40.5142 27.0076C40.0601 27.1034 39.5076 27.1514 38.8567 27.1514C38.009 27.1514 37.2572 26.995 36.6013 26.6821C35.9504 26.3693 35.4383 25.8925 35.0649 25.2517C34.6966 24.6109 34.5125 23.8036 34.5125 22.8298C34.5125 21.8409 34.679 21.0185 35.012 20.3625C35.35 19.7016 35.8193 19.2071 36.4197 18.8792C37.0201 18.5461 37.7189 18.3796 38.5161 18.3796ZM38.5312 20.022C38.0822 20.022 37.7088 20.1658 37.4111 20.4534C37.1185 20.741 36.9495 21.1925 36.9041 21.8081H40.1433C40.1383 21.465 40.0752 21.1597 39.9541 20.8923C39.8381 20.6249 39.6615 20.413 39.4243 20.2566C39.1922 20.1002 38.8945 20.022 38.5312 20.022ZM47.6738 18.3796C48.4559 18.3796 49.1295 18.531 49.6946 18.8337C50.2597 19.1314 50.6961 19.5653 51.0039 20.1355C51.3117 20.7056 51.4656 21.4019 51.4656 22.2244V23.3445H46.0088C46.034 23.9954 46.2283 24.5075 46.5916 24.8809C46.9599 25.2492 47.4695 25.4333 48.1204 25.4333C48.6602 25.4333 49.1547 25.3778 49.6038 25.2668C50.0528 25.1558 50.5145 24.9893 50.9888 24.7673V26.5535C50.57 26.7603 50.131 26.9117 49.6719 27.0076C49.2178 27.1034 48.6653 27.1514 48.0144 27.1514C47.1667 27.1514 46.415 26.995 45.759 26.6821C45.1082 26.3693 44.596 25.8925 44.2227 25.2517C43.8543 24.6109 43.6702 23.8036 43.6702 22.8298C43.6702 21.8409 43.8367 21.0185 44.1697 20.3625C44.5077 19.7016 44.977 19.2071 45.5774 18.8792C46.1778 18.5461 46.8766 18.3796 47.6738 18.3796ZM47.689 20.022C47.2399 20.022 46.8665 20.1658 46.5688 20.4534C46.2762 20.741 46.1072 21.1925 46.0618 21.8081H49.301C49.296 21.465 49.2329 21.1597 49.1118 20.8923C48.9958 20.6249 48.8192 20.413 48.582 20.2566C48.3499 20.1002 48.0522 20.022 47.689 20.022ZM60.8352 18.3645C61.9705 18.3645 62.8408 18.6117 63.4463 19.1062C64.0518 19.6007 64.3545 20.3525 64.3545 21.3616V27H62.7424L62.2959 25.8496H62.2354C61.9932 26.1523 61.7459 26.3996 61.4937 26.5913C61.2414 26.783 60.9513 26.9243 60.6233 27.0151C60.2953 27.106 59.8967 27.1514 59.4275 27.1514C58.928 27.1514 58.4789 27.0555 58.0803 26.8638C57.6868 26.672 57.3765 26.3794 57.1494 25.9858C56.9224 25.5872 56.8088 25.0827 56.8088 24.4722C56.8088 23.5741 57.1242 22.9131 57.7549 22.4893C58.3856 22.0604 59.3316 21.8232 60.593 21.7778L62.0613 21.7324V21.3616C62.0613 20.9176 61.9452 20.5921 61.7131 20.3853C61.481 20.1784 61.1581 20.075 60.7444 20.075C60.3357 20.075 59.9346 20.133 59.541 20.249C59.1475 20.3651 58.7539 20.5114 58.3604 20.688L57.5959 19.1289C58.045 18.8918 58.547 18.7051 59.1021 18.5688C59.6621 18.4326 60.2398 18.3645 60.8352 18.3645ZM62.0613 23.0796L61.1682 23.1099C60.4215 23.13 59.9018 23.2638 59.6091 23.511C59.3215 23.7582 59.1777 24.0837 59.1777 24.4873C59.1777 24.8405 59.2812 25.0928 59.488 25.2441C59.6949 25.3905 59.9648 25.4636 60.2979 25.4636C60.7923 25.4636 61.2086 25.3173 61.5466 25.0247C61.8897 24.732 62.0613 24.3158 62.0613 23.7759V23.0796ZM69.0469 27H66.7385V15.2236H69.0469V27ZM73.7847 27H71.4763V15.2236H73.7847V27ZM83.7068 18.3645C84.842 18.3645 85.7124 18.6117 86.3179 19.1062C86.9233 19.6007 87.2261 20.3525 87.2261 21.3616V27H85.614L85.1675 25.8496H85.1069C84.8647 26.1523 84.6175 26.3996 84.3652 26.5913C84.113 26.783 83.8228 26.9243 83.4949 27.0151C83.1669 27.106 82.7683 27.1514 82.2991 27.1514C81.7996 27.1514 81.3505 27.0555 80.9519 26.8638C80.5583 26.672 80.248 26.3794 80.021 25.9858C79.7939 25.5872 79.6804 25.0827 79.6804 24.4722C79.6804 23.5741 79.9958 22.9131 80.6265 22.4893C81.2572 22.0604 82.2032 21.8232 83.4646 21.7778L84.9329 21.7324V21.3616C84.9329 20.9176 84.8168 20.5921 84.5847 20.3853C84.3526 20.1784 84.0297 20.075 83.616 20.075C83.2073 20.075 82.8062 20.133 82.4126 20.249C82.019 20.3651 81.6255 20.5114 81.2319 20.688L80.4675 19.1289C80.9166 18.8918 81.4186 18.7051 81.9736 18.5688C82.5337 18.4326 83.1114 18.3645 83.7068 18.3645ZM84.9329 23.0796L84.0398 23.1099C83.2931 23.13 82.7734 23.2638 82.4807 23.511C82.1931 23.7582 82.0493 24.0837 82.0493 24.4873C82.0493 24.8405 82.1528 25.0928 82.3596 25.2441C82.5665 25.3905 82.8364 25.4636 83.1694 25.4636C83.6639 25.4636 84.0802 25.3173 84.4182 25.0247C84.7613 24.732 84.9329 24.3158 84.9329 23.7759V23.0796ZM94.3176 18.3796C95.2712 18.3796 96.0407 18.7505 96.626 19.4922C97.2163 20.2339 97.5115 21.3212 97.5115 22.7542C97.5115 23.7128 97.3727 24.5201 97.0952 25.176C96.8177 25.8269 96.4342 26.3188 95.9448 26.6519C95.4554 26.9849 94.8928 27.1514 94.2571 27.1514C93.8484 27.1514 93.4977 27.1009 93.2051 27C92.9124 26.894 92.6627 26.7603 92.4558 26.5989C92.2489 26.4324 92.0698 26.2558 91.9185 26.0691H91.7974C91.8377 26.2709 91.868 26.4778 91.8882 26.6897C91.9084 26.9016 91.9185 27.1085 91.9185 27.3103V30.7236H89.6101V18.5386H91.4871L91.8125 19.636H91.9185C92.0698 19.4089 92.254 19.1995 92.4709 19.0078C92.6879 18.8161 92.9478 18.6647 93.2505 18.5537C93.5583 18.4377 93.914 18.3796 94.3176 18.3796ZM93.5759 20.2263C93.1723 20.2263 92.8519 20.3096 92.6147 20.4761C92.3776 20.6426 92.2035 20.8923 92.0925 21.2253C91.9866 21.5583 91.9285 21.9797 91.9185 22.4893V22.739C91.9185 23.2839 91.9689 23.7456 92.0698 24.124C92.1758 24.5024 92.3499 24.79 92.592 24.9868C92.8393 25.1836 93.1773 25.282 93.6062 25.282C93.9594 25.282 94.2495 25.1836 94.4766 24.9868C94.7036 24.79 94.8726 24.5024 94.9836 24.124C95.0997 23.7406 95.1577 23.2738 95.1577 22.7239C95.1577 21.8964 95.0291 21.2733 94.7717 20.8545C94.5144 20.4357 94.1158 20.2263 93.5759 20.2263ZM104.126 18.3796C105.08 18.3796 105.849 18.7505 106.435 19.4922C107.025 20.2339 107.32 21.3212 107.32 22.7542C107.32 23.7128 107.181 24.5201 106.904 25.176C106.626 25.8269 106.243 26.3188 105.753 26.6519C105.264 26.9849 104.701 27.1514 104.066 27.1514C103.657 27.1514 103.306 27.1009 103.014 27C102.721 26.894 102.471 26.7603 102.264 26.5989C102.058 26.4324 101.878 26.2558 101.727 26.0691H101.606C101.646 26.2709 101.677 26.4778 101.697 26.6897C101.717 26.9016 101.727 27.1085 101.727 27.3103V30.7236H99.4187V18.5386H101.296L101.621 19.636H101.727C101.878 19.4089 102.063 19.1995 102.28 19.0078C102.497 18.8161 102.756 18.6647 103.059 18.5537C103.367 18.4377 103.723 18.3796 104.126 18.3796ZM103.385 20.2263C102.981 20.2263 102.66 20.3096 102.423 20.4761C102.186 20.6426 102.012 20.8923 101.901 21.2253C101.795 21.5583 101.737 21.9797 101.727 22.4893V22.739C101.727 23.2839 101.778 23.7456 101.878 24.124C101.984 24.5024 102.158 24.79 102.401 24.9868C102.648 25.1836 102.986 25.282 103.415 25.282C103.768 25.282 104.058 25.1836 104.285 24.9868C104.512 24.79 104.681 24.5024 104.792 24.124C104.908 23.7406 104.966 23.2738 104.966 22.7239C104.966 21.8964 104.838 21.2733 104.58 20.8545C104.323 20.4357 103.924 20.2263 103.385 20.2263ZM115.131 24.4873C115.131 25.0625 114.994 25.5494 114.722 25.948C114.455 26.3416 114.053 26.6418 113.519 26.8486C112.984 27.0505 112.318 27.1514 111.521 27.1514C110.93 27.1514 110.423 27.1135 109.999 27.0378C109.58 26.9622 109.157 26.836 108.728 26.6594V24.7522C109.187 24.9591 109.679 25.1306 110.204 25.2668C110.733 25.398 111.198 25.4636 111.596 25.4636C112.045 25.4636 112.366 25.398 112.557 25.2668C112.754 25.1306 112.853 24.954 112.853 24.7371C112.853 24.5958 112.812 24.4696 112.731 24.3586C112.656 24.2426 112.489 24.1139 112.232 23.9727C111.975 23.8263 111.571 23.6371 111.021 23.405C110.491 23.183 110.055 22.9585 109.712 22.7314C109.374 22.5044 109.121 22.237 108.955 21.9292C108.793 21.6164 108.713 21.2203 108.713 20.741C108.713 19.9589 109.015 19.3711 109.621 18.9775C110.231 18.5789 111.046 18.3796 112.065 18.3796C112.59 18.3796 113.09 18.4326 113.564 18.5386C114.043 18.6445 114.535 18.8136 115.04 19.0457L114.344 20.7107C113.925 20.5291 113.529 20.3802 113.155 20.2642C112.787 20.1481 112.411 20.0901 112.028 20.0901C111.69 20.0901 111.435 20.1355 111.263 20.2263C111.092 20.3171 111.006 20.4559 111.006 20.6426C111.006 20.7788 111.049 20.8999 111.135 21.0059C111.225 21.1118 111.397 21.2304 111.649 21.3616C111.906 21.4877 112.282 21.6517 112.777 21.8535C113.256 22.0503 113.672 22.2572 114.026 22.4741C114.379 22.686 114.651 22.9509 114.843 23.2688C115.035 23.5816 115.131 23.9878 115.131 24.4873Z" fill="white"/>
</svg>
