<svg width="70" height="70" viewBox="0 0 70 70" fill="none" xmlns="http://www.w3.org/2000/svg">
<circle cx="35" cy="35" r="35" transform="rotate(-90 35 35)" fill="#C6D5E8"/>
<circle cx="35" cy="35" r="25" fill="#777B9D"/>
<path d="M33.0825 38.752C33.0825 39.6309 32.8872 40.408 32.4966 41.0835C32.106 41.759 31.4793 42.2879 30.6167 42.6704C29.7622 43.0529 28.6351 43.2441 27.2354 43.2441C26.2507 43.2441 25.3677 43.1912 24.5864 43.0854C23.8133 42.9797 23.028 42.7762 22.2305 42.4751V38.6543C23.1012 39.0531 23.9883 39.342 24.8916 39.521C25.7949 39.6919 26.507 39.7773 27.0278 39.7773C27.5649 39.7773 27.9556 39.7204 28.1997 39.6064C28.452 39.4844 28.5781 39.3053 28.5781 39.0693C28.5781 38.8659 28.4927 38.695 28.3218 38.5566C28.159 38.4102 27.862 38.2433 27.4307 38.0562C27.0075 37.869 26.4093 37.6167 25.6362 37.2993C24.8713 36.9819 24.2324 36.6361 23.7197 36.2617C23.2152 35.8874 22.8368 35.4398 22.5845 34.9189C22.3322 34.3981 22.2061 33.7593 22.2061 33.0024C22.2061 31.6515 22.7269 30.6343 23.7686 29.9507C24.8102 29.2671 26.1896 28.9253 27.9067 28.9253C28.8182 28.9253 29.6768 29.027 30.4824 29.2305C31.2881 29.4258 32.1222 29.7147 32.9849 30.0972L31.6787 33.1733C30.9951 32.8641 30.3034 32.6159 29.6035 32.4287C28.9036 32.2415 28.3462 32.1479 27.9312 32.1479C27.5568 32.1479 27.2679 32.1968 27.0645 32.2944C26.861 32.3921 26.7593 32.5345 26.7593 32.7217C26.7593 32.8926 26.8285 33.0431 26.9668 33.1733C27.1133 33.3035 27.3859 33.4541 27.7847 33.625C28.1834 33.7959 28.7653 34.036 29.5303 34.3452C30.3359 34.6707 30.9992 35.0207 31.52 35.395C32.049 35.7612 32.4396 36.2088 32.6919 36.7378C32.9523 37.2668 33.0825 37.9382 33.0825 38.752ZM40.5166 24.0059V26.7036C40.5166 27.729 40.4922 28.5916 40.4434 29.2915C40.4027 29.9832 40.362 30.5122 40.3213 30.8784H40.541C40.8421 30.3983 41.1839 30.0158 41.5664 29.731C41.9489 29.4461 42.3721 29.2427 42.8359 29.1206C43.2998 28.9904 43.8044 28.9253 44.3496 28.9253C45.2611 28.9253 46.083 29.1003 46.8154 29.4502C47.556 29.8001 48.146 30.3494 48.5854 31.0981C49.0249 31.8387 49.2446 32.8071 49.2446 34.0034V43H44.4473V35.4561C44.4473 34.5365 44.313 33.8447 44.0444 33.3809C43.7759 32.9089 43.3608 32.6729 42.7993 32.6729C42.2215 32.6729 41.7658 32.8397 41.4321 33.1733C41.0985 33.4989 40.8625 33.979 40.7241 34.6138C40.5858 35.2404 40.5166 36.0094 40.5166 36.9209V43H35.7437V24.0059H40.5166Z" fill="white"/>
</svg>
