<svg width="25" height="25" viewBox="0 0 25 25" fill="none" xmlns="http://www.w3.org/2000/svg">
<path fill-rule="evenodd" clip-rule="evenodd" d="M21.313 21.313H17.554V14.7842C17.554 12.8597 16.7266 12.2662 15.6835 12.2662C14.5683 12.2662 13.4712 13.1115 13.4712 14.8381V21.313H9.71223V9.3705H13.3273V11.0252H13.3813C13.741 10.3058 15 9.04676 16.9424 9.04676C19.0468 9.04676 21.313 10.2698 21.313 13.9209V21.313ZM5.57554 7.69784C4.3705 7.69784 3.41727 6.79856 3.41727 5.53957C3.41727 4.29856 4.3705 3.38129 5.57554 3.38129C6.76259 3.38129 7.73381 4.29856 7.73381 5.53957C7.73381 6.79856 6.76259 7.69784 5.57554 7.69784ZM3.68705 21.295H7.46403V9.35252H3.68705V21.295ZM23.1655 0H1.85252C0.827338 0 0 0.827338 0 1.85252V23.1655C0 24.1727 0.827338 25 1.85252 25H23.1655C24.1727 25 25 24.1727 25 23.1655V1.85252C25 0.827338 24.1727 0 23.1655 0Z" fill="black"/>
</svg>
