<svg width="27" height="26" viewBox="0 0 27 26" fill="none" xmlns="http://www.w3.org/2000/svg">
<path d="M20.6169 0H6.38306C3.41008 0 1 2.41008 1 5.38306V19.6169C1 22.5899 3.41008 25 6.38306 25H20.6169C23.5899 25 26 22.5899 26 19.6169V5.38306C26 2.41008 23.5899 0 20.6169 0Z" fill="white" stroke="#C4CFE3" stroke-width="0.603682"/>
<path d="M7.19742 18.1357H9.5391V12.4488L6.19385 9.93982V17.1322C6.19385 17.6875 6.64376 18.1357 7.19742 18.1357Z" fill="#4285F4"/>
<path d="M17.5676 18.1357H19.9093C20.4647 18.1357 20.9129 17.6858 20.9129 17.1322V9.93982L17.5676 12.4488" fill="#34A853"/>
<path d="M17.5676 8.10008V12.4489L20.9129 9.93996V8.60187C20.9129 7.36075 19.4962 6.65322 18.5043 7.39755" fill="#FBBC04"/>
<path d="M9.53943 12.4488V8.09998L13.5538 11.1107L17.5681 8.09998V12.4488L13.5538 15.4596" fill="#EA4335"/>
<path d="M6.19385 8.60187V9.93996L9.5391 12.4489V8.10008L8.60242 7.39755C7.60888 6.65322 6.19385 7.36075 6.19385 8.60187Z" fill="#C5221F"/>
</svg>
