<svg width="1017" height="832" viewBox="0 0 1017 832" fill="none" xmlns="http://www.w3.org/2000/svg">
<rect x="361" width="656" height="832" fill="#023C82"/>
<rect x="1127.05" y="-57" width="73.83" height="791.787" transform="rotate(33.1436 1127.05 -57)" fill="url(#paint0_linear_252_2147)"/>
<rect x="558.913" y="-54" width="59.6118" height="445.433" transform="rotate(31.5263 558.913 -54)" fill="url(#paint1_linear_252_2147)"/>
<rect x="119.352" y="1296.07" width="59.6118" height="1062.5" transform="rotate(-145.883 119.352 1296.07)" fill="url(#paint2_linear_252_2147)"/>
<rect x="470.352" y="1440.07" width="59.6118" height="1062.5" transform="rotate(-145.883 470.352 1440.07)" fill="url(#paint3_linear_252_2147)"/>
<rect x="0.410156" y="-721.641" width="82" height="1830.6" transform="rotate(-27.8036 0.410156 -721.641)" fill="url(#paint4_linear_252_2147)"/>
<rect x="1158.91" y="529.617" width="73.83" height="704.703" transform="rotate(152.595 1158.91 529.617)" fill="url(#paint5_linear_252_2147)"/>
<defs>
<linearGradient id="paint0_linear_252_2147" x1="1163.97" y1="-57" x2="1163.97" y2="734.787" gradientUnits="userSpaceOnUse">
<stop stop-color="#BFDAFD"/>
<stop offset="1" stop-color="#7EABE6" stop-opacity="0"/>
</linearGradient>
<linearGradient id="paint1_linear_252_2147" x1="588.718" y1="-54" x2="588.718" y2="391.433" gradientUnits="userSpaceOnUse">
<stop stop-color="#BFDAFD"/>
<stop offset="1" stop-color="#7EABE6" stop-opacity="0"/>
</linearGradient>
<linearGradient id="paint2_linear_252_2147" x1="149.158" y1="1296.07" x2="149.158" y2="2358.57" gradientUnits="userSpaceOnUse">
<stop stop-color="#BFDAFD"/>
<stop offset="1" stop-color="#7EABE6" stop-opacity="0"/>
</linearGradient>
<linearGradient id="paint3_linear_252_2147" x1="500.158" y1="1440.07" x2="500.158" y2="2502.57" gradientUnits="userSpaceOnUse">
<stop stop-color="#BFDAFD"/>
<stop offset="1" stop-color="#7EABE6" stop-opacity="0"/>
</linearGradient>
<linearGradient id="paint4_linear_252_2147" x1="41.4102" y1="-721.641" x2="41.4102" y2="1108.96" gradientUnits="userSpaceOnUse">
<stop stop-color="#AECAEE"/>
<stop offset="1" stop-color="#0C76FF" stop-opacity="0"/>
</linearGradient>
<linearGradient id="paint5_linear_252_2147" x1="1195.82" y1="529.617" x2="1195.82" y2="1234.32" gradientUnits="userSpaceOnUse">
<stop stop-color="#A9CCF9"/>
<stop offset="1" stop-color="#0C76FF" stop-opacity="0"/>
</linearGradient>
</defs>
</svg>
