<svg width="330" height="16" viewBox="0 0 330 16" fill="none" xmlns="http://www.w3.org/2000/svg">
<path d="M6.18164 12.1465C5.38574 12.1465 4.65088 12.0122 3.97705 11.7437C3.30811 11.4702 2.72461 11.0869 2.22656 10.5938C1.7334 10.1006 1.3501 9.51953 1.07666 8.85059C0.808105 8.17676 0.673828 7.44189 0.673828 6.646C0.673828 5.84521 0.808105 5.11035 1.07666 4.44141C1.3501 3.77246 1.7334 3.19141 2.22656 2.69824C2.72461 2.2002 3.30811 1.81689 3.97705 1.54834C4.65088 1.2749 5.38574 1.13818 6.18164 1.13818C6.98242 1.13818 7.71729 1.2749 8.38623 1.54834C9.05518 1.81689 9.63623 2.2002 10.1294 2.69824C10.6226 3.19141 11.0034 3.77246 11.272 4.44141C11.5454 5.11035 11.6821 5.84521 11.6821 6.646C11.6821 7.44189 11.5454 8.17676 11.272 8.85059C11.0034 9.51953 10.6226 10.1006 10.1294 10.5938C9.63623 11.0869 9.05518 11.4702 8.38623 11.7437C7.71729 12.0122 6.98242 12.1465 6.18164 12.1465ZM6.19629 10.0811C5.11719 10.0811 4.3042 9.76611 3.75732 9.13623C3.21045 8.50146 2.93701 7.66162 2.93701 6.6167C2.93701 5.93311 3.0542 5.3374 3.28857 4.82959C3.52783 4.32178 3.88428 3.92871 4.35791 3.65039C4.83154 3.36719 5.41992 3.22559 6.12305 3.22559C6.57227 3.22559 6.9873 3.27686 7.36816 3.37939C7.74902 3.47705 8.11768 3.61621 8.47412 3.79688L7.80029 5.29834C7.54639 5.16162 7.29736 5.05908 7.05322 4.99072C6.80908 4.92236 6.54297 4.88818 6.25488 4.88818C5.86914 4.88818 5.56152 5.03955 5.33203 5.34229C5.10742 5.64014 4.99512 6.07471 4.99512 6.646C4.99512 7.26611 5.1001 7.71777 5.31006 8.00098C5.5249 8.2793 5.85449 8.41846 6.29883 8.41846C6.61621 8.41846 6.93604 8.37939 7.2583 8.30127C7.58057 8.21826 7.89062 8.09131 8.18848 7.92041V9.6123C7.88086 9.76855 7.56836 9.88574 7.25098 9.96387C6.93848 10.042 6.58691 10.0811 6.19629 10.0811ZM6.18164 10.9526C6.79199 10.9526 7.35107 10.8477 7.85889 10.6377C8.3667 10.4277 8.80371 10.1323 9.16992 9.75146C9.54102 9.36572 9.82666 8.91162 10.0269 8.38916C10.2319 7.86182 10.3345 7.28076 10.3345 6.646C10.3345 6.01123 10.2319 5.43262 10.0269 4.91016C9.82666 4.38281 9.54102 3.92871 9.16992 3.54785C8.80371 3.16211 8.3667 2.86426 7.85889 2.6543C7.35107 2.44434 6.79199 2.33936 6.18164 2.33936C5.56152 2.33936 4.99512 2.44434 4.48242 2.6543C3.96973 2.86426 3.52783 3.16211 3.15674 3.54785C2.78564 3.92871 2.49756 4.38281 2.29248 4.91016C2.09229 5.43262 1.99219 6.01123 1.99219 6.646C1.99219 7.28076 2.09229 7.86182 2.29248 8.38916C2.49756 8.91162 2.78564 9.36572 3.15674 9.75146C3.52783 10.1323 3.96973 10.4277 4.48242 10.6377C4.99512 10.8477 5.56152 10.9526 6.18164 10.9526ZM24.4775 12H16.7065V10.0957L19.3213 7.45166C19.8633 6.88525 20.2832 6.43115 20.5811 6.08936C20.8838 5.74756 21.0962 5.45703 21.2183 5.21777C21.3403 4.97852 21.4014 4.72949 21.4014 4.4707C21.4014 4.15332 21.2988 3.92383 21.0938 3.78223C20.8887 3.64063 20.647 3.56982 20.3687 3.56982C20.0317 3.56982 19.6899 3.66748 19.3433 3.86279C19.0015 4.05322 18.6133 4.33643 18.1787 4.7124L16.5894 2.85205C16.9116 2.56396 17.2534 2.29053 17.6147 2.03174C17.9761 1.76807 18.4033 1.55322 18.8965 1.38721C19.3896 1.22119 19.9902 1.13818 20.6982 1.13818C21.4258 1.13818 22.0557 1.26514 22.5879 1.51904C23.125 1.77295 23.54 2.12207 23.833 2.56641C24.126 3.00586 24.2725 3.50635 24.2725 4.06787C24.2725 4.68799 24.1577 5.24219 23.9282 5.73047C23.7036 6.21387 23.3643 6.69971 22.9102 7.18799C22.4561 7.67139 21.8896 8.2207 21.2109 8.83594L20.4272 9.53906V9.6123H24.4775V12ZM33.3105 6.66064C33.3105 7.52002 33.2422 8.28906 33.1055 8.96777C32.9688 9.6416 32.749 10.2153 32.4463 10.689C32.1484 11.1626 31.7529 11.5239 31.2598 11.7729C30.7666 12.022 30.1611 12.1465 29.4434 12.1465C28.5498 12.1465 27.8174 11.9292 27.2461 11.4946C26.6748 11.0552 26.2524 10.4277 25.979 9.6123C25.7104 8.79199 25.5762 7.80811 25.5762 6.66064C25.5762 5.50342 25.6982 4.51465 25.9424 3.69434C26.1914 2.86914 26.5991 2.23682 27.1655 1.79736C27.7319 1.35791 28.4912 1.13818 29.4434 1.13818C30.3369 1.13818 31.0669 1.35791 31.6333 1.79736C32.2046 2.23193 32.627 2.86182 32.9004 3.68701C33.1738 4.50732 33.3105 5.49854 33.3105 6.66064ZM28.4546 6.66064C28.4546 7.35889 28.479 7.94482 28.5278 8.41846C28.5815 8.89209 28.6792 9.24854 28.8208 9.48779C28.9673 9.72217 29.1748 9.83936 29.4434 9.83936C29.7119 9.83936 29.917 9.72217 30.0586 9.48779C30.2002 9.24854 30.2979 8.89453 30.3516 8.42578C30.4053 7.95215 30.4321 7.36377 30.4321 6.66064C30.4321 5.95264 30.4053 5.36182 30.3516 4.88818C30.2979 4.41455 30.2002 4.05811 30.0586 3.81885C29.917 3.57471 29.7119 3.45264 29.4434 3.45264C29.1748 3.45264 28.9673 3.57471 28.8208 3.81885C28.6792 4.05811 28.5815 4.41455 28.5278 4.88818C28.479 5.36182 28.4546 5.95264 28.4546 6.66064ZM42.0557 12H34.2847V10.0957L36.8994 7.45166C37.4414 6.88525 37.8613 6.43115 38.1592 6.08936C38.4619 5.74756 38.6743 5.45703 38.7964 5.21777C38.9185 4.97852 38.9795 4.72949 38.9795 4.4707C38.9795 4.15332 38.877 3.92383 38.6719 3.78223C38.4668 3.64063 38.2251 3.56982 37.9468 3.56982C37.6099 3.56982 37.2681 3.66748 36.9214 3.86279C36.5796 4.05322 36.1914 4.33643 35.7568 4.7124L34.1675 2.85205C34.4897 2.56396 34.8315 2.29053 35.1929 2.03174C35.5542 1.76807 35.9814 1.55322 36.4746 1.38721C36.9678 1.22119 37.5684 1.13818 38.2764 1.13818C39.0039 1.13818 39.6338 1.26514 40.166 1.51904C40.7031 1.77295 41.1182 2.12207 41.4111 2.56641C41.7041 3.00586 41.8506 3.50635 41.8506 4.06787C41.8506 4.68799 41.7358 5.24219 41.5063 5.73047C41.2817 6.21387 40.9424 6.69971 40.4883 7.18799C40.0342 7.67139 39.4678 8.2207 38.7891 8.83594L38.0054 9.53906V9.6123H42.0557V12ZM50.4858 3.61377C50.4858 4.12158 50.376 4.56104 50.1562 4.93213C49.9414 5.29834 49.6533 5.59863 49.292 5.83301C48.9355 6.06738 48.5449 6.24316 48.1201 6.36035V6.4043C48.9746 6.51172 49.6338 6.77295 50.0977 7.18799C50.5664 7.59814 50.8008 8.18164 50.8008 8.93848C50.8008 9.52441 50.6445 10.0615 50.332 10.5498C50.0195 11.0332 49.5337 11.4214 48.8745 11.7144C48.2153 12.0024 47.3682 12.1465 46.333 12.1465C45.6396 12.1465 45.0488 12.0952 44.5605 11.9927C44.0723 11.8901 43.5986 11.7485 43.1396 11.5679V9.16553C43.6035 9.40479 44.0796 9.58301 44.5679 9.7002C45.061 9.8125 45.5103 9.86865 45.9155 9.86865C46.6187 9.86865 47.0972 9.76855 47.3511 9.56836C47.6099 9.36816 47.7393 9.09961 47.7393 8.7627C47.7393 8.51855 47.6782 8.31104 47.5562 8.14014C47.4341 7.96924 47.207 7.8374 46.875 7.74463C46.5479 7.65186 46.0767 7.60547 45.4614 7.60547H44.8022V5.43018H45.4761C46.0229 5.43018 46.4551 5.38135 46.7725 5.28369C47.0947 5.18604 47.3267 5.0542 47.4683 4.88818C47.6099 4.71729 47.6807 4.52197 47.6807 4.30225C47.6807 4.01904 47.5708 3.80908 47.3511 3.67236C47.1313 3.53564 46.8408 3.46729 46.4795 3.46729C46.1572 3.46729 45.8545 3.51123 45.5713 3.59912C45.2881 3.68701 45.0415 3.78467 44.8315 3.89209C44.6216 3.99951 44.4629 4.0874 44.3555 4.15576L43.1543 2.22217C43.5986 1.91943 44.1064 1.66309 44.6777 1.45312C45.2539 1.24316 46.0059 1.13818 46.9336 1.13818C48.0371 1.13818 48.9038 1.35791 49.5337 1.79736C50.1685 2.23682 50.4858 2.84229 50.4858 3.61377ZM61.1353 12L58.9453 4.2876H58.8794C58.8989 4.48779 58.9185 4.75879 58.938 5.10059C58.9624 5.44238 58.9844 5.81104 59.0039 6.20654C59.0234 6.60205 59.0332 6.98291 59.0332 7.34912V12H56.4697V1.29199H60.3223L62.5562 8.89453H62.6147L64.8047 1.29199H68.6646V12H66.0059V7.30518C66.0059 6.96826 66.0107 6.60693 66.0205 6.22119C66.0352 5.83057 66.0498 5.46436 66.0645 5.12256C66.084 4.77588 66.1011 4.50244 66.1157 4.30225H66.0498L63.8892 12H61.1353ZM78.728 7.83252C78.728 8.52588 78.6328 9.14111 78.4424 9.67822C78.252 10.2153 77.9761 10.667 77.6147 11.0332C77.2534 11.3994 76.8164 11.6777 76.3037 11.8682C75.791 12.0537 75.2124 12.1465 74.5679 12.1465C73.9673 12.1465 73.4155 12.0537 72.9126 11.8682C72.4146 11.6777 71.98 11.3994 71.6089 11.0332C71.2378 10.667 70.9497 10.2153 70.7446 9.67822C70.5444 9.14111 70.4443 8.52588 70.4443 7.83252C70.4443 6.91455 70.6104 6.13818 70.9424 5.50342C71.2793 4.86865 71.7578 4.38525 72.3779 4.05322C73.0029 3.72119 73.7476 3.55518 74.6118 3.55518C75.4077 3.55518 76.1157 3.72119 76.7358 4.05322C77.356 4.38525 77.8418 4.86865 78.1934 5.50342C78.5498 6.13818 78.728 6.91455 78.728 7.83252ZM73.3521 7.83252C73.3521 8.30615 73.3936 8.70654 73.4766 9.03369C73.5596 9.35596 73.6914 9.60254 73.8721 9.77344C74.0576 9.93945 74.2993 10.0225 74.5972 10.0225C74.895 10.0225 75.1318 9.93945 75.3076 9.77344C75.4834 9.60254 75.6104 9.35596 75.6885 9.03369C75.7715 8.70654 75.813 8.30615 75.813 7.83252C75.813 7.35889 75.7715 6.96338 75.6885 6.646C75.6104 6.32861 75.481 6.08936 75.3003 5.92822C75.1245 5.76709 74.8853 5.68652 74.5825 5.68652C74.1479 5.68652 73.833 5.86719 73.6377 6.22852C73.4473 6.58984 73.3521 7.12451 73.3521 7.83252ZM85.5615 3.55518C86.416 3.55518 87.1143 3.79688 87.6562 4.28027C88.1982 4.76367 88.4692 5.5376 88.4692 6.60205V12H85.6055V7.47363C85.6055 6.92188 85.5249 6.50684 85.3638 6.22852C85.2075 5.94531 84.9536 5.80371 84.6021 5.80371C84.0601 5.80371 83.6963 6.02588 83.5107 6.47021C83.3252 6.90967 83.2324 7.54199 83.2324 8.36719V12H80.3687V3.70166H82.5293L82.9175 4.80029H83.0273C83.2031 4.53662 83.4131 4.31201 83.6572 4.12646C83.9014 3.94092 84.1821 3.79932 84.4995 3.70166C84.8169 3.604 85.1709 3.55518 85.5615 3.55518ZM100.547 3.55518C101.494 3.55518 102.217 3.79688 102.715 4.28027C103.218 4.76367 103.469 5.5376 103.469 6.60205V12H100.605V7.48828C100.605 6.8584 100.52 6.42139 100.349 6.17725C100.183 5.92822 99.9341 5.80371 99.6021 5.80371C99.1382 5.80371 98.8159 6.00635 98.6353 6.41162C98.4595 6.81689 98.3716 7.39062 98.3716 8.13281V12H95.5005V7.48828C95.5005 7.08789 95.4639 6.76562 95.3906 6.52148C95.3223 6.27246 95.2173 6.0918 95.0757 5.97949C94.9341 5.8623 94.7559 5.80371 94.541 5.80371C94.2139 5.80371 93.9575 5.90381 93.772 6.104C93.5913 6.29932 93.4644 6.5874 93.3911 6.96826C93.3179 7.34912 93.2812 7.81543 93.2812 8.36719V12H90.4175V3.70166H92.5781L92.9956 4.72705H93.0762C93.2227 4.50244 93.4106 4.30225 93.6401 4.12646C93.8745 3.95068 94.1504 3.81152 94.4678 3.70898C94.79 3.60645 95.1562 3.55518 95.5664 3.55518C96.1768 3.55518 96.6797 3.65771 97.0752 3.86279C97.4707 4.06787 97.793 4.35107 98.042 4.7124H98.1299C98.3936 4.34131 98.7329 4.05566 99.1479 3.85547C99.563 3.65527 100.029 3.55518 100.547 3.55518ZM109.468 3.55518C110.518 3.55518 111.338 3.81641 111.929 4.33887C112.52 4.85645 112.815 5.59619 112.815 6.55811V12H110.83L110.281 10.9014H110.222C109.988 11.1943 109.746 11.4336 109.497 11.6191C109.253 11.7998 108.972 11.9316 108.655 12.0146C108.337 12.1025 107.949 12.1465 107.49 12.1465C107.012 12.1465 106.582 12.0488 106.201 11.8535C105.82 11.6582 105.52 11.3628 105.3 10.9673C105.081 10.5718 104.971 10.0713 104.971 9.46582C104.971 8.57715 105.278 7.91797 105.894 7.48828C106.509 7.05859 107.4 6.81689 108.567 6.76318L109.951 6.71924V6.60205C109.951 6.23096 109.858 5.96729 109.673 5.81104C109.492 5.65479 109.248 5.57666 108.94 5.57666C108.613 5.57666 108.247 5.63525 107.842 5.75244C107.441 5.86475 107.039 6.01123 106.633 6.19189L105.806 4.30225C106.284 4.05811 106.826 3.87256 107.432 3.74561C108.037 3.61865 108.716 3.55518 109.468 3.55518ZM109.966 8.29395L109.307 8.32324C108.779 8.34277 108.408 8.43555 108.193 8.60156C107.983 8.7627 107.878 8.99463 107.878 9.29736C107.878 9.58057 107.954 9.79053 108.105 9.92725C108.257 10.0591 108.457 10.125 108.706 10.125C109.053 10.125 109.348 10.0151 109.592 9.79541C109.841 9.57568 109.966 9.29004 109.966 8.93848V8.29395ZM118.828 9.8833C119.087 9.8833 119.324 9.85645 119.539 9.80273C119.753 9.74902 119.978 9.68066 120.212 9.59766V11.6851C119.9 11.8218 119.568 11.9316 119.216 12.0146C118.87 12.1025 118.425 12.1465 117.883 12.1465C117.346 12.1465 116.873 12.0635 116.462 11.8975C116.052 11.7266 115.732 11.4336 115.503 11.0186C115.278 10.5986 115.166 10.0151 115.166 9.26807V5.84766H114.163V4.68311L115.437 3.78223L116.177 2.03906H118.052V3.70166H120.088V5.84766H118.052V9.07764C118.052 9.34619 118.12 9.54883 118.257 9.68555C118.394 9.81738 118.584 9.8833 118.828 9.8833ZM124.541 3.70166V12H121.677V3.70166H124.541ZM123.12 0.361816C123.53 0.361816 123.887 0.447266 124.189 0.618164C124.497 0.789062 124.651 1.12842 124.651 1.63623C124.651 2.12939 124.497 2.46387 124.189 2.63965C123.887 2.81055 123.53 2.896 123.12 2.896C122.7 2.896 122.341 2.81055 122.043 2.63965C121.75 2.46387 121.604 2.12939 121.604 1.63623C121.604 1.12842 121.75 0.789062 122.043 0.618164C122.341 0.447266 122.7 0.361816 123.12 0.361816ZM130.32 12.1465C129.48 12.1465 128.75 11.9976 128.13 11.6997C127.51 11.397 127.029 10.9331 126.687 10.3081C126.35 9.67822 126.182 8.87256 126.182 7.89111C126.182 6.88525 126.37 6.0625 126.746 5.42285C127.126 4.7832 127.646 4.31201 128.306 4.00928C128.965 3.70654 129.712 3.55518 130.547 3.55518C131.055 3.55518 131.536 3.61133 131.99 3.72363C132.449 3.83594 132.874 3.98975 133.264 4.18506L132.422 6.30176C132.08 6.15039 131.76 6.03076 131.462 5.94287C131.169 5.8501 130.864 5.80371 130.547 5.80371C130.259 5.80371 130.005 5.87939 129.785 6.03076C129.565 6.18213 129.395 6.41162 129.272 6.71924C129.15 7.02197 129.089 7.40771 129.089 7.87646C129.089 8.35498 129.15 8.74072 129.272 9.03369C129.399 9.32666 129.573 9.53906 129.792 9.6709C130.017 9.80273 130.273 9.86865 130.562 9.86865C130.977 9.86865 131.389 9.80518 131.799 9.67822C132.214 9.54639 132.607 9.36572 132.979 9.13623V11.4141C132.637 11.6387 132.251 11.8169 131.821 11.9487C131.392 12.0806 130.891 12.1465 130.32 12.1465ZM140.793 9.45117C140.793 9.97852 140.676 10.4448 140.442 10.8501C140.208 11.2554 139.832 11.5728 139.314 11.8022C138.801 12.0317 138.125 12.1465 137.285 12.1465C136.694 12.1465 136.165 12.1147 135.696 12.0513C135.232 11.9878 134.761 11.8657 134.282 11.6851V9.39258C134.805 9.63184 135.337 9.80518 135.879 9.9126C136.421 10.0151 136.848 10.0664 137.161 10.0664C137.483 10.0664 137.717 10.0322 137.864 9.96387C138.015 9.89062 138.091 9.7832 138.091 9.6416C138.091 9.51953 138.04 9.41699 137.937 9.33398C137.839 9.24609 137.661 9.146 137.402 9.03369C137.148 8.92139 136.79 8.77002 136.326 8.57959C135.867 8.38916 135.483 8.18164 135.176 7.95703C134.873 7.73242 134.646 7.46387 134.495 7.15137C134.343 6.83887 134.268 6.45557 134.268 6.00146C134.268 5.19092 134.58 4.58057 135.205 4.17041C135.83 3.76025 136.658 3.55518 137.688 3.55518C138.235 3.55518 138.75 3.61621 139.233 3.73828C139.717 3.85547 140.217 4.02881 140.735 4.2583L139.951 6.104C139.541 5.91846 139.126 5.76953 138.706 5.65723C138.286 5.54492 137.952 5.48877 137.703 5.48877C137.478 5.48877 137.305 5.51807 137.183 5.57666C137.061 5.63525 137 5.7207 137 5.83301C137 5.93555 137.041 6.02588 137.124 6.104C137.212 6.18213 137.375 6.27246 137.615 6.375C137.854 6.47754 138.203 6.62158 138.662 6.80713C139.146 7.00244 139.543 7.2124 139.856 7.43701C140.173 7.65674 140.408 7.92529 140.559 8.24268C140.715 8.56006 140.793 8.96289 140.793 9.45117ZM146.455 12V1.29199H149.363V12H146.455ZM156.709 3.55518C157.563 3.55518 158.262 3.79688 158.804 4.28027C159.346 4.76367 159.617 5.5376 159.617 6.60205V12H156.753V7.47363C156.753 6.92188 156.672 6.50684 156.511 6.22852C156.355 5.94531 156.101 5.80371 155.75 5.80371C155.208 5.80371 154.844 6.02588 154.658 6.47021C154.473 6.90967 154.38 7.54199 154.38 8.36719V12H151.516V3.70166H153.677L154.065 4.80029H154.175C154.351 4.53662 154.561 4.31201 154.805 4.12646C155.049 3.94092 155.33 3.79932 155.647 3.70166C155.964 3.604 156.318 3.55518 156.709 3.55518ZM165.344 12.1465C164.504 12.1465 163.774 11.9976 163.154 11.6997C162.534 11.397 162.053 10.9331 161.711 10.3081C161.375 9.67822 161.206 8.87256 161.206 7.89111C161.206 6.88525 161.394 6.0625 161.77 5.42285C162.151 4.7832 162.671 4.31201 163.33 4.00928C163.989 3.70654 164.736 3.55518 165.571 3.55518C166.079 3.55518 166.56 3.61133 167.014 3.72363C167.473 3.83594 167.898 3.98975 168.289 4.18506L167.446 6.30176C167.104 6.15039 166.785 6.03076 166.487 5.94287C166.194 5.8501 165.889 5.80371 165.571 5.80371C165.283 5.80371 165.029 5.87939 164.81 6.03076C164.59 6.18213 164.419 6.41162 164.297 6.71924C164.175 7.02197 164.114 7.40771 164.114 7.87646C164.114 8.35498 164.175 8.74072 164.297 9.03369C164.424 9.32666 164.597 9.53906 164.817 9.6709C165.042 9.80273 165.298 9.86865 165.586 9.86865C166.001 9.86865 166.414 9.80518 166.824 9.67822C167.239 9.54639 167.632 9.36572 168.003 9.13623V11.4141C167.661 11.6387 167.275 11.8169 166.846 11.9487C166.416 12.0806 165.916 12.1465 165.344 12.1465ZM169.292 10.7842C169.292 10.2666 169.443 9.90283 169.746 9.69287C170.054 9.48291 170.422 9.37793 170.852 9.37793C171.257 9.37793 171.609 9.48291 171.907 9.69287C172.205 9.90283 172.354 10.2666 172.354 10.7842C172.354 11.2773 172.205 11.6338 171.907 11.8535C171.609 12.0732 171.257 12.1831 170.852 12.1831C170.422 12.1831 170.054 12.0732 169.746 11.8535C169.443 11.6338 169.292 11.2773 169.292 10.7842ZM184.622 12L184.094 9.99316H180.615L180.073 12H176.895L180.388 1.24805H184.248L187.786 12H184.622ZM183.494 7.62012L183.032 5.8623C182.983 5.67188 182.913 5.40088 182.82 5.04932C182.727 4.69287 182.634 4.32666 182.542 3.95068C182.454 3.56982 182.385 3.25732 182.336 3.01318C182.292 3.25732 182.229 3.56006 182.146 3.92139C182.068 4.27783 181.985 4.63184 181.897 4.9834C181.814 5.33496 181.741 5.62793 181.677 5.8623L181.216 7.62012H183.494ZM191.646 12H188.782V0.603516H191.646V12ZM196.494 12H193.63V0.603516H196.494V12ZM206.052 1.29199C207.024 1.29199 207.832 1.41162 208.477 1.65088C209.121 1.88525 209.604 2.23682 209.927 2.70557C210.254 3.17432 210.417 3.75781 210.417 4.45605C210.417 4.89062 210.344 5.28613 210.198 5.64258C210.051 5.99902 209.841 6.31885 209.568 6.60205C209.299 6.88037 208.977 7.12451 208.601 7.33447L211.721 12H208.44L206.169 8.10352H205.437V12H202.544V1.29199H206.052ZM206.008 3.48193H205.437V5.92822H205.979C206.423 5.92822 206.787 5.83057 207.07 5.63525C207.354 5.43994 207.495 5.09082 207.495 4.58789C207.495 4.24121 207.378 3.97021 207.144 3.7749C206.909 3.57959 206.531 3.48193 206.008 3.48193ZM215.405 3.70166V12H212.542V3.70166H215.405ZM213.984 0.361816C214.395 0.361816 214.751 0.447266 215.054 0.618164C215.361 0.789062 215.515 1.12842 215.515 1.63623C215.515 2.12939 215.361 2.46387 215.054 2.63965C214.751 2.81055 214.395 2.896 213.984 2.896C213.564 2.896 213.206 2.81055 212.908 2.63965C212.615 2.46387 212.468 2.12939 212.468 1.63623C212.468 1.12842 212.615 0.789062 212.908 0.618164C213.206 0.447266 213.564 0.361816 213.984 0.361816ZM220.239 15.6035C219.062 15.6035 218.154 15.4058 217.515 15.0103C216.88 14.6196 216.562 14.0557 216.562 13.3184C216.562 12.8252 216.716 12.4175 217.024 12.0952C217.332 11.7729 217.793 11.541 218.408 11.3994C218.154 11.292 217.932 11.1187 217.742 10.8794C217.556 10.6401 217.463 10.4033 217.463 10.1689C217.463 9.91016 217.534 9.68311 217.676 9.48779C217.817 9.2876 218.113 9.05078 218.562 8.77734C218.132 8.58691 217.793 8.28906 217.544 7.88379C217.3 7.47852 217.178 6.98535 217.178 6.4043C217.178 5.80371 217.314 5.29102 217.588 4.86621C217.866 4.44141 218.269 4.1167 218.796 3.89209C219.329 3.66748 219.976 3.55518 220.737 3.55518C220.84 3.55518 220.996 3.56494 221.206 3.58447C221.416 3.59912 221.628 3.61865 221.843 3.64307C222.058 3.6626 222.224 3.68213 222.341 3.70166H225.234V5.08594L224.099 5.50342C224.177 5.64502 224.236 5.79883 224.275 5.96484C224.314 6.13086 224.333 6.30664 224.333 6.49219C224.333 7.38574 224.019 8.0791 223.389 8.57227C222.764 9.06543 221.829 9.31201 220.583 9.31201C220.276 9.31201 220.032 9.29248 219.851 9.25342C219.817 9.31689 219.79 9.38037 219.771 9.44385C219.756 9.50244 219.749 9.55859 219.749 9.6123C219.749 9.72461 219.814 9.81494 219.946 9.8833C220.083 9.94678 220.247 9.99072 220.437 10.0151C220.632 10.0396 220.818 10.0518 220.994 10.0518H222.371C223.303 10.0518 224.001 10.2471 224.465 10.6377C224.929 11.0283 225.161 11.6167 225.161 12.4028C225.161 13.4136 224.729 14.1997 223.865 14.7612C223.005 15.3228 221.797 15.6035 220.239 15.6035ZM220.378 13.8164C220.725 13.8164 221.074 13.7847 221.426 13.7212C221.777 13.6626 222.073 13.5649 222.312 13.4282C222.551 13.2915 222.671 13.1108 222.671 12.8862C222.671 12.7153 222.6 12.5859 222.458 12.498C222.317 12.415 222.134 12.3589 221.909 12.3296C221.685 12.3003 221.448 12.2856 221.199 12.2856H220.085C219.88 12.2856 219.692 12.3174 219.521 12.3809C219.355 12.4492 219.224 12.5396 219.126 12.6519C219.028 12.7642 218.979 12.8911 218.979 13.0327C218.979 13.2671 219.106 13.4551 219.36 13.5967C219.614 13.7432 219.954 13.8164 220.378 13.8164ZM220.767 7.69336C221.04 7.69336 221.25 7.58838 221.396 7.37842C221.548 7.16846 221.624 6.85352 221.624 6.43359C221.624 6.00391 221.553 5.68164 221.411 5.4668C221.27 5.25195 221.055 5.14453 220.767 5.14453C220.469 5.14453 220.247 5.25195 220.1 5.4668C219.954 5.67676 219.88 5.99414 219.88 6.41895C219.88 6.84375 219.954 7.16357 220.1 7.37842C220.247 7.58838 220.469 7.69336 220.767 7.69336ZM229.365 0.603516V2.22217C229.365 2.8374 229.351 3.35498 229.321 3.7749C229.297 4.18994 229.272 4.50732 229.248 4.72705H229.38C229.561 4.43896 229.766 4.20947 229.995 4.03857C230.225 3.86768 230.479 3.74561 230.757 3.67236C231.035 3.59424 231.338 3.55518 231.665 3.55518C232.212 3.55518 232.705 3.66016 233.145 3.87012C233.589 4.08008 233.943 4.40967 234.207 4.85889C234.47 5.30322 234.602 5.88428 234.602 6.60205V12H231.724V7.47363C231.724 6.92188 231.643 6.50684 231.482 6.22852C231.321 5.94531 231.072 5.80371 230.735 5.80371C230.388 5.80371 230.115 5.90381 229.915 6.104C229.714 6.29932 229.573 6.5874 229.49 6.96826C229.407 7.34424 229.365 7.80566 229.365 8.35254V12H226.501V0.603516H229.365ZM240.615 9.8833C240.874 9.8833 241.111 9.85645 241.326 9.80273C241.541 9.74902 241.765 9.68066 242 9.59766V11.6851C241.687 11.8218 241.355 11.9316 241.003 12.0146C240.657 12.1025 240.212 12.1465 239.67 12.1465C239.133 12.1465 238.66 12.0635 238.25 11.8975C237.839 11.7266 237.52 11.4336 237.29 11.0186C237.065 10.5986 236.953 10.0151 236.953 9.26807V5.84766H235.95V4.68311L237.224 3.78223L237.964 2.03906H239.839V3.70166H241.875V5.84766H239.839V9.07764C239.839 9.34619 239.907 9.54883 240.044 9.68555C240.181 9.81738 240.371 9.8833 240.615 9.8833ZM249.617 9.45117C249.617 9.97852 249.5 10.4448 249.265 10.8501C249.031 11.2554 248.655 11.5728 248.137 11.8022C247.625 12.0317 246.948 12.1465 246.108 12.1465C245.518 12.1465 244.988 12.1147 244.519 12.0513C244.055 11.9878 243.584 11.8657 243.105 11.6851V9.39258C243.628 9.63184 244.16 9.80518 244.702 9.9126C245.244 10.0151 245.671 10.0664 245.984 10.0664C246.306 10.0664 246.541 10.0322 246.687 9.96387C246.838 9.89062 246.914 9.7832 246.914 9.6416C246.914 9.51953 246.863 9.41699 246.76 9.33398C246.663 9.24609 246.484 9.146 246.226 9.03369C245.972 8.92139 245.613 8.77002 245.149 8.57959C244.69 8.38916 244.307 8.18164 243.999 7.95703C243.696 7.73242 243.469 7.46387 243.318 7.15137C243.167 6.83887 243.091 6.45557 243.091 6.00146C243.091 5.19092 243.403 4.58057 244.028 4.17041C244.653 3.76025 245.481 3.55518 246.511 3.55518C247.058 3.55518 247.573 3.61621 248.057 3.73828C248.54 3.85547 249.041 4.02881 249.558 4.2583L248.774 6.104C248.364 5.91846 247.949 5.76953 247.529 5.65723C247.109 5.54492 246.775 5.48877 246.526 5.48877C246.301 5.48877 246.128 5.51807 246.006 5.57666C245.884 5.63525 245.823 5.7207 245.823 5.83301C245.823 5.93555 245.864 6.02588 245.947 6.104C246.035 6.18213 246.199 6.27246 246.438 6.375C246.677 6.47754 247.026 6.62158 247.485 6.80713C247.969 7.00244 248.367 7.2124 248.679 7.43701C248.997 7.65674 249.231 7.92529 249.382 8.24268C249.539 8.56006 249.617 8.96289 249.617 9.45117ZM258.787 1.29199C259.758 1.29199 260.566 1.41162 261.211 1.65088C261.855 1.88525 262.339 2.23682 262.661 2.70557C262.988 3.17432 263.152 3.75781 263.152 4.45605C263.152 4.89062 263.079 5.28613 262.932 5.64258C262.786 5.99902 262.576 6.31885 262.302 6.60205C262.034 6.88037 261.711 7.12451 261.335 7.33447L264.456 12H261.174L258.904 8.10352H258.171V12H255.278V1.29199H258.787ZM258.743 3.48193H258.171V5.92822H258.713C259.158 5.92822 259.521 5.83057 259.805 5.63525C260.088 5.43994 260.229 5.09082 260.229 4.58789C260.229 4.24121 260.112 3.97021 259.878 3.7749C259.644 3.57959 259.265 3.48193 258.743 3.48193ZM268.997 3.55518C269.802 3.55518 270.498 3.69678 271.084 3.97998C271.67 4.2583 272.122 4.67822 272.439 5.23975C272.756 5.80127 272.915 6.50439 272.915 7.34912V8.62354H267.795C267.82 9.05811 267.981 9.41455 268.279 9.69287C268.582 9.97119 269.026 10.1104 269.612 10.1104C270.129 10.1104 270.603 10.0591 271.033 9.95654C271.467 9.854 271.914 9.69531 272.373 9.48047V11.5386C271.973 11.7485 271.536 11.9023 271.062 12C270.588 12.0977 269.99 12.1465 269.268 12.1465C268.433 12.1465 267.686 11.9976 267.026 11.6997C266.367 11.4019 265.847 10.9404 265.466 10.3154C265.09 9.69043 264.902 8.88721 264.902 7.90576C264.902 6.90967 265.073 6.0918 265.415 5.45215C265.757 4.80762 266.235 4.33154 266.851 4.02393C267.466 3.71143 268.181 3.55518 268.997 3.55518ZM269.099 5.50342C268.762 5.50342 268.479 5.61084 268.25 5.82568C268.025 6.03564 267.893 6.36768 267.854 6.82178H270.315C270.31 6.57764 270.261 6.35547 270.168 6.15527C270.076 5.95508 269.939 5.79639 269.758 5.6792C269.583 5.56201 269.363 5.50342 269.099 5.50342ZM280.701 9.45117C280.701 9.97852 280.583 10.4448 280.349 10.8501C280.115 11.2554 279.739 11.5728 279.221 11.8022C278.708 12.0317 278.032 12.1465 277.192 12.1465C276.602 12.1465 276.072 12.1147 275.603 12.0513C275.139 11.9878 274.668 11.8657 274.189 11.6851V9.39258C274.712 9.63184 275.244 9.80518 275.786 9.9126C276.328 10.0151 276.755 10.0664 277.068 10.0664C277.39 10.0664 277.625 10.0322 277.771 9.96387C277.922 9.89062 277.998 9.7832 277.998 9.6416C277.998 9.51953 277.947 9.41699 277.844 9.33398C277.747 9.24609 277.568 9.146 277.31 9.03369C277.056 8.92139 276.697 8.77002 276.233 8.57959C275.774 8.38916 275.391 8.18164 275.083 7.95703C274.78 7.73242 274.553 7.46387 274.402 7.15137C274.25 6.83887 274.175 6.45557 274.175 6.00146C274.175 5.19092 274.487 4.58057 275.112 4.17041C275.737 3.76025 276.565 3.55518 277.595 3.55518C278.142 3.55518 278.657 3.61621 279.141 3.73828C279.624 3.85547 280.125 4.02881 280.642 4.2583L279.858 6.104C279.448 5.91846 279.033 5.76953 278.613 5.65723C278.193 5.54492 277.859 5.48877 277.61 5.48877C277.385 5.48877 277.212 5.51807 277.09 5.57666C276.968 5.63525 276.907 5.7207 276.907 5.83301C276.907 5.93555 276.948 6.02588 277.031 6.104C277.119 6.18213 277.283 6.27246 277.522 6.375C277.761 6.47754 278.11 6.62158 278.569 6.80713C279.053 7.00244 279.451 7.2124 279.763 7.43701C280.081 7.65674 280.315 7.92529 280.466 8.24268C280.623 8.56006 280.701 8.96289 280.701 9.45117ZM286.033 3.55518C286.838 3.55518 287.534 3.69678 288.12 3.97998C288.706 4.2583 289.158 4.67822 289.475 5.23975C289.792 5.80127 289.951 6.50439 289.951 7.34912V8.62354H284.832C284.856 9.05811 285.017 9.41455 285.315 9.69287C285.618 9.97119 286.062 10.1104 286.648 10.1104C287.166 10.1104 287.639 10.0591 288.069 9.95654C288.503 9.854 288.95 9.69531 289.409 9.48047V11.5386C289.009 11.7485 288.572 11.9023 288.098 12C287.625 12.0977 287.026 12.1465 286.304 12.1465C285.469 12.1465 284.722 11.9976 284.062 11.6997C283.403 11.4019 282.883 10.9404 282.502 10.3154C282.126 9.69043 281.938 8.88721 281.938 7.90576C281.938 6.90967 282.109 6.0918 282.451 5.45215C282.793 4.80762 283.271 4.33154 283.887 4.02393C284.502 3.71143 285.217 3.55518 286.033 3.55518ZM286.135 5.50342C285.798 5.50342 285.515 5.61084 285.286 5.82568C285.061 6.03564 284.929 6.36768 284.89 6.82178H287.351C287.346 6.57764 287.297 6.35547 287.205 6.15527C287.112 5.95508 286.975 5.79639 286.794 5.6792C286.619 5.56201 286.399 5.50342 286.135 5.50342ZM296.58 3.55518C296.736 3.55518 296.899 3.56738 297.07 3.5918C297.241 3.61133 297.368 3.62842 297.451 3.64307L297.195 6.3457C297.102 6.32129 296.982 6.30176 296.836 6.28711C296.689 6.26758 296.484 6.25781 296.221 6.25781C296.04 6.25781 295.847 6.2749 295.642 6.30908C295.437 6.34326 295.242 6.4165 295.056 6.52881C294.875 6.63623 294.727 6.80225 294.609 7.02686C294.492 7.24658 294.434 7.54443 294.434 7.92041V12H291.57V3.70166H293.701L294.148 5.02734H294.287C294.438 4.75391 294.631 4.50732 294.866 4.2876C295.105 4.06299 295.371 3.88477 295.664 3.75293C295.962 3.62109 296.267 3.55518 296.58 3.55518ZM300.791 12L297.627 3.70166H300.615L302.021 8.60889C302.036 8.65283 302.061 8.76514 302.095 8.9458C302.134 9.12646 302.153 9.29492 302.153 9.45117H302.205C302.205 9.28516 302.222 9.12646 302.256 8.9751C302.29 8.82373 302.317 8.70654 302.336 8.62354L303.809 3.70166H306.79L303.625 12H300.791ZM311.521 3.55518C312.327 3.55518 313.022 3.69678 313.608 3.97998C314.194 4.2583 314.646 4.67822 314.963 5.23975C315.281 5.80127 315.439 6.50439 315.439 7.34912V8.62354H310.32C310.344 9.05811 310.505 9.41455 310.803 9.69287C311.106 9.97119 311.55 10.1104 312.136 10.1104C312.654 10.1104 313.127 10.0591 313.557 9.95654C313.992 9.854 314.438 9.69531 314.897 9.48047V11.5386C314.497 11.7485 314.06 11.9023 313.586 12C313.113 12.0977 312.515 12.1465 311.792 12.1465C310.957 12.1465 310.21 11.9976 309.551 11.6997C308.892 11.4019 308.372 10.9404 307.991 10.3154C307.615 9.69043 307.427 8.88721 307.427 7.90576C307.427 6.90967 307.598 6.0918 307.939 5.45215C308.281 4.80762 308.76 4.33154 309.375 4.02393C309.99 3.71143 310.706 3.55518 311.521 3.55518ZM311.624 5.50342C311.287 5.50342 311.003 5.61084 310.774 5.82568C310.549 6.03564 310.417 6.36768 310.378 6.82178H312.839C312.834 6.57764 312.786 6.35547 312.693 6.15527C312.6 5.95508 312.463 5.79639 312.283 5.6792C312.107 5.56201 311.887 5.50342 311.624 5.50342ZM319.636 12.1465C318.782 12.1465 318.079 11.7827 317.527 11.0552C316.975 10.3276 316.699 9.26318 316.699 7.86182C316.699 6.4458 316.982 5.37402 317.549 4.64648C318.115 3.91895 318.848 3.55518 319.746 3.55518C320.117 3.55518 320.437 3.60889 320.706 3.71631C320.974 3.82373 321.206 3.97021 321.401 4.15576C321.602 4.33643 321.775 4.5415 321.921 4.771H321.98C321.946 4.56104 321.914 4.27295 321.885 3.90674C321.855 3.53564 321.841 3.17432 321.841 2.82275V0.603516H324.727V12H322.566L321.951 10.9526H321.841C321.709 11.1724 321.543 11.3726 321.343 11.5532C321.147 11.7339 320.908 11.8779 320.625 11.9854C320.347 12.0928 320.017 12.1465 319.636 12.1465ZM320.808 9.8833C321.267 9.8833 321.589 9.73926 321.775 9.45117C321.965 9.1582 322.068 8.71387 322.083 8.11816V7.89111C322.083 7.23682 321.99 6.73633 321.804 6.38965C321.624 6.03809 321.282 5.8623 320.779 5.8623C320.437 5.8623 320.154 6.02832 319.929 6.36035C319.705 6.69238 319.592 7.20752 319.592 7.90576C319.592 8.59424 319.705 9.09717 319.929 9.41455C320.159 9.72705 320.452 9.8833 320.808 9.8833ZM326.353 10.7842C326.353 10.2666 326.504 9.90283 326.807 9.69287C327.114 9.48291 327.483 9.37793 327.913 9.37793C328.318 9.37793 328.669 9.48291 328.967 9.69287C329.265 9.90283 329.414 10.2666 329.414 10.7842C329.414 11.2773 329.265 11.6338 328.967 11.8535C328.669 12.0732 328.318 12.1831 327.913 12.1831C327.483 12.1831 327.114 12.0732 326.807 11.8535C326.504 11.6338 326.353 11.2773 326.353 10.7842Z" fill="black"/>
</svg>
