<svg width="248" height="13" viewBox="0 0 248 13" fill="none" xmlns="http://www.w3.org/2000/svg">
<path d="M4.99219 10.1172C4.35547 10.1172 3.76758 10.0078 3.22852 9.78906C2.69336 9.57031 2.22656 9.26367 1.82812 8.86914C1.43359 8.47461 1.12695 8.00977 0.908203 7.47461C0.693359 6.93555 0.585938 6.34961 0.585938 5.7168C0.585938 5.0918 0.695312 4.51172 0.914062 3.97656C1.13672 3.44141 1.44727 2.97461 1.8457 2.57617C2.24414 2.17773 2.71094 1.86719 3.24609 1.64453C3.78125 1.42188 4.36328 1.31055 4.99219 1.31055C5.60547 1.31055 6.17773 1.41992 6.70898 1.63867C7.24414 1.85742 7.71289 2.16602 8.11523 2.56445C8.51758 2.95898 8.83203 3.42383 9.05859 3.95898C9.28516 4.49414 9.39844 5.08008 9.39844 5.7168C9.39844 6.34961 9.28906 6.93555 9.07031 7.47461C8.85547 8.00977 8.54883 8.47461 8.15039 8.86914C7.75586 9.26367 7.28906 9.57031 6.75 9.78906C6.21484 10.0078 5.62891 10.1172 4.99219 10.1172ZM5.17969 8.42969C4.375 8.42969 3.77148 8.18164 3.36914 7.68555C2.9707 7.18945 2.77148 6.5332 2.77148 5.7168C2.77148 5.18945 2.86523 4.72266 3.05273 4.31641C3.24414 3.91016 3.52148 3.5918 3.88477 3.36133C4.25195 3.12695 4.69922 3.00977 5.22656 3.00977C5.47656 3.00977 5.72852 3.04102 5.98242 3.10352C6.24023 3.16602 6.48047 3.25391 6.70312 3.36719L6.36328 4.11133C6.16797 4.00977 5.97461 3.93164 5.7832 3.87695C5.5957 3.82227 5.41406 3.79492 5.23828 3.79492C4.75391 3.79492 4.37695 3.9668 4.10742 4.31055C3.8418 4.65039 3.70898 5.11914 3.70898 5.7168C3.70898 6.33398 3.82812 6.80859 4.06641 7.14062C4.30469 7.47266 4.68945 7.63867 5.2207 7.63867C5.41211 7.63867 5.62109 7.61328 5.84766 7.5625C6.07422 7.51172 6.28711 7.44531 6.48633 7.36328V8.13672C6.29492 8.22266 6.09766 8.29297 5.89453 8.34766C5.69531 8.40234 5.45703 8.42969 5.17969 8.42969ZM4.99219 9.43164C5.5 9.43164 5.97461 9.3418 6.41602 9.16211C6.85742 8.97852 7.24609 8.7207 7.58203 8.38867C7.91797 8.05273 8.17969 7.6582 8.36719 7.20508C8.55859 6.75195 8.6543 6.25586 8.6543 5.7168C8.6543 5.20508 8.5625 4.72461 8.37891 4.27539C8.19922 3.82617 7.94336 3.42969 7.61133 3.08594C7.2832 2.74219 6.89648 2.47461 6.45117 2.2832C6.00586 2.08789 5.51953 1.99023 4.99219 1.99023C4.46484 1.99023 3.97656 2.08203 3.52734 2.26562C3.08203 2.44922 2.69336 2.70898 2.36133 3.04492C2.0293 3.37695 1.77148 3.76953 1.58789 4.22266C1.4082 4.67578 1.31836 5.17383 1.31836 5.7168C1.31836 6.24414 1.4082 6.73438 1.58789 7.1875C1.76758 7.63672 2.02148 8.0293 2.34961 8.36523C2.67773 8.70117 3.06641 8.96289 3.51562 9.15039C3.96484 9.33789 4.45703 9.43164 4.99219 9.43164ZM19.4414 10H13.6406V8.96289L15.8613 6.71289C16.291 6.27539 16.6445 5.89844 16.9219 5.58203C17.1992 5.26172 17.4043 4.95898 17.5371 4.67383C17.6738 4.38867 17.7422 4.07812 17.7422 3.74219C17.7422 3.32812 17.623 3.01562 17.3848 2.80469C17.1465 2.58984 16.832 2.48242 16.4414 2.48242C16.0703 2.48242 15.7266 2.55664 15.4102 2.70508C15.0977 2.84961 14.7734 3.05664 14.4375 3.32617L13.6816 2.41797C13.9199 2.21484 14.1738 2.0293 14.4434 1.86133C14.7168 1.69336 15.0215 1.56055 15.3574 1.46289C15.6934 1.36133 16.0762 1.31055 16.5059 1.31055C17.0488 1.31055 17.5176 1.4082 17.9121 1.60352C18.3066 1.79492 18.6094 2.0625 18.8203 2.40625C19.0352 2.75 19.1426 3.15039 19.1426 3.60742C19.1426 4.06836 19.0508 4.49414 18.8672 4.88477C18.6836 5.27539 18.4219 5.66211 18.082 6.04492C17.7422 6.42383 17.3379 6.83594 16.8691 7.28125L15.3867 8.72852V8.79297H19.4414V10ZM26.3086 5.71094C26.3086 6.40234 26.2539 7.02148 26.1445 7.56836C26.0391 8.11133 25.8711 8.57227 25.6406 8.95117C25.4102 9.33008 25.1094 9.61914 24.7383 9.81836C24.3672 10.0176 23.918 10.1172 23.3906 10.1172C22.7305 10.1172 22.1855 9.94336 21.7559 9.5957C21.3262 9.24414 21.0078 8.74023 20.8008 8.08398C20.5938 7.42383 20.4902 6.63281 20.4902 5.71094C20.4902 4.78906 20.584 4 20.7715 3.34375C20.9629 2.68359 21.2715 2.17773 21.6973 1.82617C22.123 1.47461 22.6875 1.29883 23.3906 1.29883C24.0547 1.29883 24.6016 1.47461 25.0312 1.82617C25.4648 2.17383 25.7852 2.67773 25.9922 3.33789C26.2031 3.99414 26.3086 4.78516 26.3086 5.71094ZM21.8789 5.71094C21.8789 6.43359 21.9258 7.03711 22.0195 7.52148C22.1172 8.00586 22.2773 8.36914 22.5 8.61133C22.7227 8.84961 23.0195 8.96875 23.3906 8.96875C23.7617 8.96875 24.0586 8.84961 24.2812 8.61133C24.5039 8.37305 24.6641 8.01172 24.7617 7.52734C24.8633 7.04297 24.9141 6.4375 24.9141 5.71094C24.9141 4.99219 24.8652 4.39062 24.7676 3.90625C24.6699 3.42188 24.5098 3.05859 24.2871 2.81641C24.0645 2.57031 23.7656 2.44727 23.3906 2.44727C23.0156 2.44727 22.7168 2.57031 22.4941 2.81641C22.2754 3.05859 22.1172 3.42188 22.0195 3.90625C21.9258 4.39062 21.8789 4.99219 21.8789 5.71094ZM33.1758 10H27.375V8.96289L29.5957 6.71289C30.0254 6.27539 30.3789 5.89844 30.6562 5.58203C30.9336 5.26172 31.1387 4.95898 31.2715 4.67383C31.4082 4.38867 31.4766 4.07812 31.4766 3.74219C31.4766 3.32812 31.3574 3.01562 31.1191 2.80469C30.8809 2.58984 30.5664 2.48242 30.1758 2.48242C29.8047 2.48242 29.4609 2.55664 29.1445 2.70508C28.832 2.84961 28.5078 3.05664 28.1719 3.32617L27.416 2.41797C27.6543 2.21484 27.9082 2.0293 28.1777 1.86133C28.4512 1.69336 28.7559 1.56055 29.0918 1.46289C29.4277 1.36133 29.8105 1.31055 30.2402 1.31055C30.7832 1.31055 31.252 1.4082 31.6465 1.60352C32.041 1.79492 32.3438 2.0625 32.5547 2.40625C32.7695 2.75 32.877 3.15039 32.877 3.60742C32.877 4.06836 32.7852 4.49414 32.6016 4.88477C32.418 5.27539 32.1562 5.66211 31.8164 6.04492C31.4766 6.42383 31.0723 6.83594 30.6035 7.28125L29.1211 8.72852V8.79297H33.1758V10ZM39.7148 3.39062C39.7148 3.77734 39.6367 4.11328 39.4805 4.39844C39.3242 4.68359 39.1094 4.91797 38.8359 5.10156C38.5664 5.28125 38.2539 5.41016 37.8984 5.48828V5.5293C38.582 5.61523 39.0977 5.83008 39.4453 6.17383C39.7969 6.51758 39.9727 6.97266 39.9727 7.53906C39.9727 8.03516 39.8535 8.47852 39.6152 8.86914C39.377 9.25586 39.0117 9.56055 38.5195 9.7832C38.0273 10.0059 37.3945 10.1172 36.6211 10.1172C36.1562 10.1172 35.7246 10.0801 35.3262 10.0059C34.9316 9.93164 34.5566 9.8125 34.2012 9.64844V8.42383C34.5645 8.60352 34.9512 8.74219 35.3613 8.83984C35.7715 8.9375 36.1602 8.98633 36.5273 8.98633C37.2422 8.98633 37.752 8.85352 38.0566 8.58789C38.3613 8.31836 38.5137 7.94727 38.5137 7.47461C38.5137 7.16992 38.4336 6.91992 38.2734 6.72461C38.1172 6.5293 37.873 6.38281 37.541 6.28516C37.2129 6.1875 36.7891 6.13867 36.2695 6.13867H35.5137V5.03125H36.2754C36.7715 5.03125 37.1699 4.97266 37.4707 4.85547C37.7715 4.73438 37.9883 4.56836 38.1211 4.35742C38.2578 4.14648 38.3262 3.90039 38.3262 3.61914C38.3262 3.25195 38.207 2.9668 37.9688 2.76367C37.7305 2.55664 37.377 2.45312 36.9082 2.45312C36.6191 2.45312 36.3555 2.48633 36.1172 2.55273C35.8828 2.61914 35.666 2.70312 35.4668 2.80469C35.2676 2.90625 35.0781 3.01562 34.8984 3.13281L34.2363 2.17773C34.5605 1.93555 34.9473 1.73047 35.3965 1.5625C35.8457 1.39453 36.3691 1.31055 36.9668 1.31055C37.8457 1.31055 38.5234 1.5 39 1.87891C39.4766 2.25391 39.7148 2.75781 39.7148 3.39062ZM52.002 3.39062C52.7285 3.39062 53.2754 3.57812 53.6426 3.95312C54.0137 4.32812 54.1992 4.92969 54.1992 5.75781V10H52.8223V6.00391C52.8223 5.51172 52.7266 5.14062 52.5352 4.89062C52.3438 4.64062 52.0527 4.51562 51.6621 4.51562C51.1152 4.51562 50.7207 4.69141 50.4785 5.04297C50.2402 5.39062 50.1211 5.89648 50.1211 6.56055V10H48.7441V6.00391C48.7441 5.67578 48.7012 5.40234 48.6152 5.18359C48.5332 4.96094 48.4062 4.79492 48.2344 4.68555C48.0625 4.57227 47.8457 4.51562 47.584 4.51562C47.2051 4.51562 46.9023 4.60156 46.6758 4.77344C46.4531 4.94531 46.293 5.19922 46.1953 5.53516C46.0977 5.86719 46.0488 6.27539 46.0488 6.75977V10H44.6719V3.51367H45.7441L45.9375 4.38672H46.0137C46.1465 4.16016 46.3105 3.97461 46.5059 3.83008C46.7051 3.68164 46.9258 3.57227 47.168 3.50195C47.4102 3.42773 47.6621 3.39062 47.9238 3.39062C48.4082 3.39062 48.8164 3.47656 49.1484 3.64844C49.4805 3.81641 49.7285 4.07422 49.8926 4.42188H49.998C50.2012 4.07031 50.4844 3.81055 50.8477 3.64258C51.2109 3.47461 51.5957 3.39062 52.002 3.39062ZM61.8633 6.74219C61.8633 7.28125 61.793 7.75977 61.6523 8.17773C61.5117 8.5957 61.3066 8.94922 61.0371 9.23828C60.7676 9.52344 60.4434 9.74219 60.0645 9.89453C59.6855 10.043 59.2578 10.1172 58.7812 10.1172C58.3359 10.1172 57.9277 10.043 57.5566 9.89453C57.1855 9.74219 56.8633 9.52344 56.5898 9.23828C56.3203 8.94922 56.1113 8.5957 55.9629 8.17773C55.8145 7.75977 55.7402 7.28125 55.7402 6.74219C55.7402 6.02734 55.8633 5.42188 56.1094 4.92578C56.3594 4.42578 56.7148 4.04492 57.1758 3.7832C57.6367 3.52148 58.1855 3.39062 58.8223 3.39062C59.4199 3.39062 59.9473 3.52148 60.4043 3.7832C60.8613 4.04492 61.2188 4.42578 61.4766 4.92578C61.7344 5.42578 61.8633 6.03125 61.8633 6.74219ZM57.1582 6.74219C57.1582 7.21484 57.2148 7.61914 57.3281 7.95508C57.4453 8.29102 57.625 8.54883 57.8672 8.72852C58.1094 8.9043 58.4219 8.99219 58.8047 8.99219C59.1875 8.99219 59.5 8.9043 59.7422 8.72852C59.9844 8.54883 60.1621 8.29102 60.2754 7.95508C60.3887 7.61914 60.4453 7.21484 60.4453 6.74219C60.4453 6.26953 60.3887 5.86914 60.2754 5.54102C60.1621 5.20898 59.9844 4.95703 59.7422 4.78516C59.5 4.60938 59.1855 4.52148 58.7988 4.52148C58.2285 4.52148 57.8125 4.71289 57.5508 5.0957C57.2891 5.47852 57.1582 6.02734 57.1582 6.74219ZM66.8262 3.39062C67.5566 3.39062 68.125 3.58008 68.5312 3.95898C68.9414 4.33398 69.1465 4.9375 69.1465 5.76953V10H67.7695V6.02734C67.7695 5.52344 67.666 5.14648 67.459 4.89648C67.252 4.64258 66.9316 4.51562 66.498 4.51562C65.8691 4.51562 65.4316 4.70898 65.1855 5.0957C64.9434 5.48242 64.8223 6.04297 64.8223 6.77734V10H63.4453V3.51367H64.5176L64.7109 4.39258H64.7871C64.9277 4.16602 65.1016 3.98047 65.3086 3.83594C65.5195 3.6875 65.7539 3.57617 66.0117 3.50195C66.2734 3.42773 66.5449 3.39062 66.8262 3.39062ZM78.4043 3.39062C79.1309 3.39062 79.6777 3.57812 80.0449 3.95312C80.416 4.32812 80.6016 4.92969 80.6016 5.75781V10H79.2246V6.00391C79.2246 5.51172 79.1289 5.14062 78.9375 4.89062C78.7461 4.64062 78.4551 4.51562 78.0645 4.51562C77.5176 4.51562 77.123 4.69141 76.8809 5.04297C76.6426 5.39062 76.5234 5.89648 76.5234 6.56055V10H75.1465V6.00391C75.1465 5.67578 75.1035 5.40234 75.0176 5.18359C74.9355 4.96094 74.8086 4.79492 74.6367 4.68555C74.4648 4.57227 74.248 4.51562 73.9863 4.51562C73.6074 4.51562 73.3047 4.60156 73.0781 4.77344C72.8555 4.94531 72.6953 5.19922 72.5977 5.53516C72.5 5.86719 72.4512 6.27539 72.4512 6.75977V10H71.0742V3.51367H72.1465L72.3398 4.38672H72.416C72.5488 4.16016 72.7129 3.97461 72.9082 3.83008C73.1074 3.68164 73.3281 3.57227 73.5703 3.50195C73.8125 3.42773 74.0645 3.39062 74.3262 3.39062C74.8105 3.39062 75.2188 3.47656 75.5508 3.64844C75.8828 3.81641 76.1309 4.07422 76.2949 4.42188H76.4004C76.6035 4.07031 76.8867 3.81055 77.25 3.64258C77.6133 3.47461 77.998 3.39062 78.4043 3.39062ZM85.0664 3.39062C85.8867 3.39062 86.5059 3.57227 86.9238 3.93555C87.3457 4.29883 87.5566 4.86523 87.5566 5.63477V10H86.5781L86.3145 9.08008H86.2676C86.084 9.31445 85.8945 9.50781 85.6992 9.66016C85.5039 9.8125 85.2773 9.92578 85.0195 10C84.7656 10.0781 84.4551 10.1172 84.0879 10.1172C83.7012 10.1172 83.3555 10.0469 83.0508 9.90625C82.7461 9.76172 82.5059 9.54297 82.3301 9.25C82.1543 8.95703 82.0664 8.58594 82.0664 8.13672C82.0664 7.46875 82.3145 6.9668 82.8105 6.63086C83.3105 6.29492 84.0645 6.10938 85.0723 6.07422L86.1973 6.0332V5.69336C86.1973 5.24414 86.0918 4.92383 85.8809 4.73242C85.6738 4.54102 85.3809 4.44531 85.002 4.44531C84.6777 4.44531 84.3633 4.49219 84.0586 4.58594C83.7539 4.67969 83.457 4.79492 83.168 4.93164L82.7227 3.95898C83.0391 3.79102 83.3984 3.6543 83.8008 3.54883C84.207 3.44336 84.6289 3.39062 85.0664 3.39062ZM86.1914 6.90039L85.3535 6.92969C84.666 6.95312 84.1836 7.07031 83.9062 7.28125C83.6289 7.49219 83.4902 7.78125 83.4902 8.14844C83.4902 8.46875 83.5859 8.70312 83.7773 8.85156C83.9688 8.99609 84.2207 9.06836 84.5332 9.06836C85.0098 9.06836 85.4043 8.93359 85.7168 8.66406C86.0332 8.39062 86.1914 7.99023 86.1914 7.46289V6.90039ZM91.8984 9.00391C92.0781 9.00391 92.2559 8.98828 92.4316 8.95703C92.6074 8.92188 92.7676 8.88086 92.9121 8.83398V9.87695C92.7598 9.94336 92.5625 10 92.3203 10.0469C92.0781 10.0938 91.8262 10.1172 91.5645 10.1172C91.1973 10.1172 90.8672 10.0566 90.5742 9.93555C90.2812 9.81055 90.0488 9.59766 89.877 9.29688C89.7051 8.99609 89.6191 8.58008 89.6191 8.04883V4.5625H88.7344V3.94727L89.6836 3.46094L90.1348 2.07227H91.002V3.51367H92.8594V4.5625H91.002V8.03125C91.002 8.35938 91.084 8.60352 91.248 8.76367C91.4121 8.92383 91.6289 9.00391 91.8984 9.00391ZM95.6074 3.51367V10H94.2305V3.51367H95.6074ZM94.9277 1.0293C95.1387 1.0293 95.3203 1.08594 95.4727 1.19922C95.6289 1.3125 95.707 1.50781 95.707 1.78516C95.707 2.05859 95.6289 2.25391 95.4727 2.37109C95.3203 2.48438 95.1387 2.54102 94.9277 2.54102C94.709 2.54102 94.5234 2.48438 94.3711 2.37109C94.2227 2.25391 94.1484 2.05859 94.1484 1.78516C94.1484 1.50781 94.2227 1.3125 94.3711 1.19922C94.5234 1.08594 94.709 1.0293 94.9277 1.0293ZM100.195 10.1172C99.582 10.1172 99.0508 9.99805 98.6016 9.75977C98.1523 9.52148 97.8066 9.15625 97.5645 8.66406C97.3223 8.17188 97.2012 7.54688 97.2012 6.78906C97.2012 6 97.334 5.35547 97.5996 4.85547C97.8652 4.35547 98.2324 3.98633 98.7012 3.74805C99.1738 3.50977 99.7148 3.39062 100.324 3.39062C100.711 3.39062 101.061 3.42969 101.373 3.50781C101.689 3.58203 101.957 3.67383 102.176 3.7832L101.766 4.88477C101.527 4.78711 101.283 4.70508 101.033 4.63867C100.783 4.57227 100.543 4.53906 100.312 4.53906C99.9336 4.53906 99.6172 4.62305 99.3633 4.79102C99.1133 4.95898 98.9258 5.20898 98.8008 5.54102C98.6797 5.87305 98.6191 6.28516 98.6191 6.77734C98.6191 7.25391 98.6816 7.65625 98.8066 7.98438C98.9316 8.30859 99.1172 8.55469 99.3633 8.72266C99.6094 8.88672 99.9121 8.96875 100.271 8.96875C100.627 8.96875 100.945 8.92578 101.227 8.83984C101.508 8.75391 101.773 8.64258 102.023 8.50586V9.70117C101.777 9.8418 101.514 9.94531 101.232 10.0117C100.951 10.082 100.605 10.1172 100.195 10.1172ZM107.906 8.14844C107.906 8.57422 107.803 8.93359 107.596 9.22656C107.389 9.51953 107.086 9.74219 106.688 9.89453C106.293 10.043 105.809 10.1172 105.234 10.1172C104.781 10.1172 104.391 10.084 104.062 10.0176C103.738 9.95508 103.432 9.85742 103.143 9.72461V8.53516C103.451 8.67969 103.797 8.80469 104.18 8.91016C104.566 9.01562 104.932 9.06836 105.275 9.06836C105.729 9.06836 106.055 8.99805 106.254 8.85742C106.453 8.71289 106.553 8.52148 106.553 8.2832C106.553 8.14258 106.512 8.01758 106.43 7.9082C106.352 7.79492 106.203 7.67969 105.984 7.5625C105.77 7.44141 105.453 7.29688 105.035 7.12891C104.625 6.96484 104.279 6.80078 103.998 6.63672C103.717 6.47266 103.504 6.27539 103.359 6.04492C103.215 5.81055 103.143 5.51172 103.143 5.14844C103.143 4.57422 103.369 4.13867 103.822 3.8418C104.279 3.54102 104.883 3.39062 105.633 3.39062C106.031 3.39062 106.406 3.43164 106.758 3.51367C107.113 3.5918 107.461 3.70703 107.801 3.85938L107.367 4.89648C107.074 4.76758 106.779 4.66211 106.482 4.58008C106.189 4.49414 105.891 4.45117 105.586 4.45117C105.23 4.45117 104.959 4.50586 104.771 4.61523C104.588 4.72461 104.496 4.88086 104.496 5.08398C104.496 5.23633 104.541 5.36523 104.631 5.4707C104.721 5.57617 104.875 5.68164 105.094 5.78711C105.316 5.89258 105.625 6.02344 106.02 6.17969C106.406 6.32812 106.74 6.48438 107.021 6.64844C107.307 6.80859 107.525 7.00586 107.678 7.24023C107.83 7.47461 107.906 7.77734 107.906 8.14844ZM112.652 10V1.43359H114.059V10H112.652ZM119.561 3.39062C120.291 3.39062 120.859 3.58008 121.266 3.95898C121.676 4.33398 121.881 4.9375 121.881 5.76953V10H120.504V6.02734C120.504 5.52344 120.4 5.14648 120.193 4.89648C119.986 4.64258 119.666 4.51562 119.232 4.51562C118.604 4.51562 118.166 4.70898 117.92 5.0957C117.678 5.48242 117.557 6.04297 117.557 6.77734V10H116.18V3.51367H117.252L117.445 4.39258H117.521C117.662 4.16602 117.836 3.98047 118.043 3.83594C118.254 3.6875 118.488 3.57617 118.746 3.50195C119.008 3.42773 119.279 3.39062 119.561 3.39062ZM126.422 10.1172C125.809 10.1172 125.277 9.99805 124.828 9.75977C124.379 9.52148 124.033 9.15625 123.791 8.66406C123.549 8.17188 123.428 7.54688 123.428 6.78906C123.428 6 123.561 5.35547 123.826 4.85547C124.092 4.35547 124.459 3.98633 124.928 3.74805C125.4 3.50977 125.941 3.39062 126.551 3.39062C126.938 3.39062 127.287 3.42969 127.6 3.50781C127.916 3.58203 128.184 3.67383 128.402 3.7832L127.992 4.88477C127.754 4.78711 127.51 4.70508 127.26 4.63867C127.01 4.57227 126.77 4.53906 126.539 4.53906C126.16 4.53906 125.844 4.62305 125.59 4.79102C125.34 4.95898 125.152 5.20898 125.027 5.54102C124.906 5.87305 124.846 6.28516 124.846 6.77734C124.846 7.25391 124.908 7.65625 125.033 7.98438C125.158 8.30859 125.344 8.55469 125.59 8.72266C125.836 8.88672 126.139 8.96875 126.498 8.96875C126.854 8.96875 127.172 8.92578 127.453 8.83984C127.734 8.75391 128 8.64258 128.25 8.50586V9.70117C128.004 9.8418 127.74 9.94531 127.459 10.0117C127.178 10.082 126.832 10.1172 126.422 10.1172ZM129.574 9.27344C129.574 8.95312 129.656 8.72852 129.82 8.59961C129.988 8.4668 130.191 8.40039 130.43 8.40039C130.668 8.40039 130.871 8.4668 131.039 8.59961C131.211 8.72852 131.297 8.95312 131.297 9.27344C131.297 9.58594 131.211 9.8125 131.039 9.95312C130.871 10.0898 130.668 10.1582 130.43 10.1582C130.191 10.1582 129.988 10.0898 129.82 9.95312C129.656 9.8125 129.574 9.58594 129.574 9.27344ZM141.633 10L140.795 7.62109H137.52L136.682 10H135.199L138.387 1.39844H139.945L143.127 10H141.633ZM140.432 6.41406L139.617 4.07031C139.586 3.96875 139.541 3.82617 139.482 3.64258C139.424 3.45508 139.365 3.26562 139.307 3.07422C139.248 2.87891 139.199 2.71484 139.16 2.58203C139.121 2.74219 139.072 2.92188 139.014 3.12109C138.959 3.31641 138.904 3.5 138.85 3.67188C138.799 3.84375 138.76 3.97656 138.732 4.07031L137.912 6.41406H140.432ZM145.5 10H144.117V0.882812H145.5V10ZM148.852 10H147.469V0.882812H148.852V10ZM156.486 1.43359C157.225 1.43359 157.834 1.52344 158.314 1.70312C158.799 1.88281 159.158 2.15625 159.393 2.52344C159.631 2.89062 159.75 3.35742 159.75 3.92383C159.75 4.3457 159.672 4.70508 159.516 5.00195C159.359 5.29883 159.154 5.54492 158.9 5.74023C158.646 5.93555 158.375 6.0918 158.086 6.20898L160.518 10H158.93L156.861 6.56641H155.484V10H154.078V1.43359H156.486ZM156.393 2.60547H155.484V5.40625H156.457C157.109 5.40625 157.582 5.28516 157.875 5.04297C158.172 4.80078 158.32 4.44336 158.32 3.9707C158.32 3.47461 158.162 3.12305 157.846 2.91602C157.533 2.70898 157.049 2.60547 156.393 2.60547ZM162.979 3.51367V10H161.602V3.51367H162.979ZM162.299 1.0293C162.51 1.0293 162.691 1.08594 162.844 1.19922C163 1.3125 163.078 1.50781 163.078 1.78516C163.078 2.05859 163 2.25391 162.844 2.37109C162.691 2.48438 162.51 2.54102 162.299 2.54102C162.08 2.54102 161.895 2.48438 161.742 2.37109C161.594 2.25391 161.52 2.05859 161.52 1.78516C161.52 1.50781 161.594 1.3125 161.742 1.19922C161.895 1.08594 162.08 1.0293 162.299 1.0293ZM166.805 12.8828C165.926 12.8828 165.252 12.7246 164.783 12.4082C164.314 12.0918 164.08 11.6484 164.08 11.0781C164.08 10.6797 164.205 10.3418 164.455 10.0645C164.705 9.79102 165.062 9.60156 165.527 9.49609C165.352 9.41797 165.199 9.29688 165.07 9.13281C164.945 8.96484 164.883 8.7793 164.883 8.57617C164.883 8.33398 164.951 8.12695 165.088 7.95508C165.225 7.7832 165.43 7.61719 165.703 7.45703C165.363 7.3125 165.09 7.07812 164.883 6.75391C164.68 6.42578 164.578 6.04102 164.578 5.59961C164.578 5.13086 164.678 4.73242 164.877 4.4043C165.076 4.07227 165.367 3.82031 165.75 3.64844C166.133 3.47266 166.596 3.38477 167.139 3.38477C167.256 3.38477 167.383 3.39258 167.52 3.4082C167.66 3.41992 167.789 3.43555 167.906 3.45508C168.027 3.4707 168.119 3.48828 168.182 3.50781H170.426V4.27539L169.324 4.48047C169.43 4.62891 169.514 4.79883 169.576 4.99023C169.639 5.17773 169.67 5.38281 169.67 5.60547C169.67 6.27734 169.438 6.80664 168.973 7.19336C168.512 7.57617 167.875 7.76758 167.062 7.76758C166.867 7.75977 166.678 7.74414 166.494 7.7207C166.354 7.80664 166.246 7.90234 166.172 8.00781C166.098 8.10938 166.061 8.22461 166.061 8.35352C166.061 8.45898 166.098 8.54492 166.172 8.61133C166.246 8.67383 166.355 8.7207 166.5 8.75195C166.648 8.7832 166.828 8.79883 167.039 8.79883H168.158C168.869 8.79883 169.412 8.94922 169.787 9.25C170.162 9.55078 170.35 9.99219 170.35 10.5742C170.35 11.3125 170.045 11.8809 169.436 12.2793C168.826 12.6816 167.949 12.8828 166.805 12.8828ZM166.857 11.916C167.338 11.916 167.742 11.8691 168.07 11.7754C168.398 11.6816 168.646 11.5469 168.814 11.3711C168.982 11.1992 169.066 10.9941 169.066 10.7559C169.066 10.5449 169.014 10.3828 168.908 10.2695C168.803 10.1562 168.645 10.0781 168.434 10.0352C168.223 9.99219 167.961 9.9707 167.648 9.9707H166.629C166.375 9.9707 166.15 10.0098 165.955 10.0879C165.76 10.1699 165.607 10.2871 165.498 10.4395C165.393 10.5918 165.34 10.7754 165.34 10.9902C165.34 11.2871 165.471 11.5156 165.732 11.6758C165.998 11.8359 166.373 11.916 166.857 11.916ZM167.127 6.86523C167.529 6.86523 167.828 6.75586 168.023 6.53711C168.219 6.31445 168.316 6.00195 168.316 5.59961C168.316 5.16211 168.215 4.83398 168.012 4.61523C167.812 4.39648 167.516 4.28711 167.121 4.28711C166.734 4.28711 166.439 4.39844 166.236 4.62109C166.037 4.84375 165.938 5.17383 165.938 5.61133C165.938 6.00586 166.037 6.31445 166.236 6.53711C166.439 6.75586 166.736 6.86523 167.127 6.86523ZM172.986 0.882812V3.17383C172.986 3.41211 172.979 3.64453 172.963 3.87109C172.951 4.09766 172.938 4.27344 172.922 4.39844H172.998C173.135 4.17188 173.303 3.98633 173.502 3.8418C173.701 3.69336 173.924 3.58203 174.17 3.50781C174.42 3.43359 174.686 3.39648 174.967 3.39648C175.463 3.39648 175.885 3.48047 176.232 3.64844C176.58 3.8125 176.846 4.06836 177.029 4.41602C177.217 4.76367 177.311 5.21484 177.311 5.76953V10H175.934V6.02734C175.934 5.52344 175.83 5.14648 175.623 4.89648C175.416 4.64258 175.096 4.51562 174.662 4.51562C174.244 4.51562 173.912 4.60352 173.666 4.7793C173.424 4.95117 173.25 5.20703 173.145 5.54688C173.039 5.88281 172.986 6.29297 172.986 6.77734V10H171.609V0.882812H172.986ZM181.652 9.00391C181.832 9.00391 182.01 8.98828 182.186 8.95703C182.361 8.92188 182.521 8.88086 182.666 8.83398V9.87695C182.514 9.94336 182.316 10 182.074 10.0469C181.832 10.0938 181.58 10.1172 181.318 10.1172C180.951 10.1172 180.621 10.0566 180.328 9.93555C180.035 9.81055 179.803 9.59766 179.631 9.29688C179.459 8.99609 179.373 8.58008 179.373 8.04883V4.5625H178.488V3.94727L179.438 3.46094L179.889 2.07227H180.756V3.51367H182.613V4.5625H180.756V8.03125C180.756 8.35938 180.838 8.60352 181.002 8.76367C181.166 8.92383 181.383 9.00391 181.652 9.00391ZM188.344 8.14844C188.344 8.57422 188.24 8.93359 188.033 9.22656C187.826 9.51953 187.523 9.74219 187.125 9.89453C186.73 10.043 186.246 10.1172 185.672 10.1172C185.219 10.1172 184.828 10.084 184.5 10.0176C184.176 9.95508 183.869 9.85742 183.58 9.72461V8.53516C183.889 8.67969 184.234 8.80469 184.617 8.91016C185.004 9.01562 185.369 9.06836 185.713 9.06836C186.166 9.06836 186.492 8.99805 186.691 8.85742C186.891 8.71289 186.99 8.52148 186.99 8.2832C186.99 8.14258 186.949 8.01758 186.867 7.9082C186.789 7.79492 186.641 7.67969 186.422 7.5625C186.207 7.44141 185.891 7.29688 185.473 7.12891C185.062 6.96484 184.717 6.80078 184.436 6.63672C184.154 6.47266 183.941 6.27539 183.797 6.04492C183.652 5.81055 183.58 5.51172 183.58 5.14844C183.58 4.57422 183.807 4.13867 184.26 3.8418C184.717 3.54102 185.32 3.39062 186.07 3.39062C186.469 3.39062 186.844 3.43164 187.195 3.51367C187.551 3.5918 187.898 3.70703 188.238 3.85938L187.805 4.89648C187.512 4.76758 187.217 4.66211 186.92 4.58008C186.627 4.49414 186.328 4.45117 186.023 4.45117C185.668 4.45117 185.396 4.50586 185.209 4.61523C185.025 4.72461 184.934 4.88086 184.934 5.08398C184.934 5.23633 184.979 5.36523 185.068 5.4707C185.158 5.57617 185.312 5.68164 185.531 5.78711C185.754 5.89258 186.062 6.02344 186.457 6.17969C186.844 6.32812 187.178 6.48438 187.459 6.64844C187.744 6.80859 187.963 7.00586 188.115 7.24023C188.268 7.47461 188.344 7.77734 188.344 8.14844ZM195.498 1.43359C196.236 1.43359 196.846 1.52344 197.326 1.70312C197.811 1.88281 198.17 2.15625 198.404 2.52344C198.643 2.89062 198.762 3.35742 198.762 3.92383C198.762 4.3457 198.684 4.70508 198.527 5.00195C198.371 5.29883 198.166 5.54492 197.912 5.74023C197.658 5.93555 197.387 6.0918 197.098 6.20898L199.529 10H197.941L195.873 6.56641H194.496V10H193.09V1.43359H195.498ZM195.404 2.60547H194.496V5.40625H195.469C196.121 5.40625 196.594 5.28516 196.887 5.04297C197.184 4.80078 197.332 4.44336 197.332 3.9707C197.332 3.47461 197.174 3.12305 196.857 2.91602C196.545 2.70898 196.061 2.60547 195.404 2.60547ZM203.197 3.39062C203.775 3.39062 204.271 3.50977 204.686 3.74805C205.1 3.98633 205.418 4.32422 205.641 4.76172C205.863 5.19922 205.975 5.72266 205.975 6.33203V7.07031H201.645C201.66 7.69922 201.828 8.18359 202.148 8.52344C202.473 8.86328 202.926 9.0332 203.508 9.0332C203.922 9.0332 204.293 8.99414 204.621 8.91602C204.953 8.83398 205.295 8.71484 205.646 8.55859V9.67773C205.322 9.83008 204.992 9.94141 204.656 10.0117C204.32 10.082 203.918 10.1172 203.449 10.1172C202.812 10.1172 202.252 9.99414 201.768 9.74805C201.287 9.49805 200.91 9.12695 200.637 8.63477C200.367 8.14258 200.232 7.53125 200.232 6.80078C200.232 6.07422 200.355 5.45703 200.602 4.94922C200.848 4.44141 201.193 4.05469 201.639 3.78906C202.084 3.52344 202.604 3.39062 203.197 3.39062ZM203.197 4.42773C202.764 4.42773 202.412 4.56836 202.143 4.84961C201.877 5.13086 201.721 5.54297 201.674 6.08594H204.627C204.623 5.76172 204.568 5.47461 204.463 5.22461C204.361 4.97461 204.205 4.7793 203.994 4.63867C203.787 4.49805 203.521 4.42773 203.197 4.42773ZM211.887 8.14844C211.887 8.57422 211.783 8.93359 211.576 9.22656C211.369 9.51953 211.066 9.74219 210.668 9.89453C210.273 10.043 209.789 10.1172 209.215 10.1172C208.762 10.1172 208.371 10.084 208.043 10.0176C207.719 9.95508 207.412 9.85742 207.123 9.72461V8.53516C207.432 8.67969 207.777 8.80469 208.16 8.91016C208.547 9.01562 208.912 9.06836 209.256 9.06836C209.709 9.06836 210.035 8.99805 210.234 8.85742C210.434 8.71289 210.533 8.52148 210.533 8.2832C210.533 8.14258 210.492 8.01758 210.41 7.9082C210.332 7.79492 210.184 7.67969 209.965 7.5625C209.75 7.44141 209.434 7.29688 209.016 7.12891C208.605 6.96484 208.26 6.80078 207.979 6.63672C207.697 6.47266 207.484 6.27539 207.34 6.04492C207.195 5.81055 207.123 5.51172 207.123 5.14844C207.123 4.57422 207.35 4.13867 207.803 3.8418C208.26 3.54102 208.863 3.39062 209.613 3.39062C210.012 3.39062 210.387 3.43164 210.738 3.51367C211.094 3.5918 211.441 3.70703 211.781 3.85938L211.348 4.89648C211.055 4.76758 210.76 4.66211 210.463 4.58008C210.17 4.49414 209.871 4.45117 209.566 4.45117C209.211 4.45117 208.939 4.50586 208.752 4.61523C208.568 4.72461 208.477 4.88086 208.477 5.08398C208.477 5.23633 208.521 5.36523 208.611 5.4707C208.701 5.57617 208.855 5.68164 209.074 5.78711C209.297 5.89258 209.605 6.02344 210 6.17969C210.387 6.32812 210.721 6.48438 211.002 6.64844C211.287 6.80859 211.506 7.00586 211.658 7.24023C211.811 7.47461 211.887 7.77734 211.887 8.14844ZM215.959 3.39062C216.537 3.39062 217.033 3.50977 217.447 3.74805C217.861 3.98633 218.18 4.32422 218.402 4.76172C218.625 5.19922 218.736 5.72266 218.736 6.33203V7.07031H214.406C214.422 7.69922 214.59 8.18359 214.91 8.52344C215.234 8.86328 215.688 9.0332 216.27 9.0332C216.684 9.0332 217.055 8.99414 217.383 8.91602C217.715 8.83398 218.057 8.71484 218.408 8.55859V9.67773C218.084 9.83008 217.754 9.94141 217.418 10.0117C217.082 10.082 216.68 10.1172 216.211 10.1172C215.574 10.1172 215.014 9.99414 214.529 9.74805C214.049 9.49805 213.672 9.12695 213.398 8.63477C213.129 8.14258 212.994 7.53125 212.994 6.80078C212.994 6.07422 213.117 5.45703 213.363 4.94922C213.609 4.44141 213.955 4.05469 214.4 3.78906C214.846 3.52344 215.365 3.39062 215.959 3.39062ZM215.959 4.42773C215.525 4.42773 215.174 4.56836 214.904 4.84961C214.639 5.13086 214.482 5.54297 214.436 6.08594H217.389C217.385 5.76172 217.33 5.47461 217.225 5.22461C217.123 4.97461 216.967 4.7793 216.756 4.63867C216.549 4.49805 216.283 4.42773 215.959 4.42773ZM223.576 3.39062C223.686 3.39062 223.805 3.39648 223.934 3.4082C224.062 3.41992 224.174 3.43555 224.268 3.45508L224.139 4.74414C224.057 4.7207 223.955 4.70312 223.834 4.69141C223.717 4.67969 223.611 4.67383 223.518 4.67383C223.271 4.67383 223.037 4.71484 222.814 4.79688C222.592 4.875 222.395 4.99609 222.223 5.16016C222.051 5.32031 221.916 5.52148 221.818 5.76367C221.721 6.00586 221.672 6.28711 221.672 6.60742V10H220.289V3.51367H221.367L221.555 4.65625H221.619C221.748 4.42578 221.908 4.21484 222.1 4.02344C222.291 3.83203 222.51 3.67969 222.756 3.56641C223.006 3.44922 223.279 3.39062 223.576 3.39062ZM226.951 10L224.484 3.51367H225.943L227.279 7.32227C227.365 7.56445 227.443 7.82617 227.514 8.10742C227.584 8.38867 227.633 8.625 227.66 8.81641H227.707C227.734 8.61719 227.787 8.37891 227.865 8.10156C227.943 7.82031 228.023 7.56055 228.105 7.32227L229.441 3.51367H230.895L228.428 10H226.951ZM234.463 3.39062C235.041 3.39062 235.537 3.50977 235.951 3.74805C236.365 3.98633 236.684 4.32422 236.906 4.76172C237.129 5.19922 237.24 5.72266 237.24 6.33203V7.07031H232.91C232.926 7.69922 233.094 8.18359 233.414 8.52344C233.738 8.86328 234.191 9.0332 234.773 9.0332C235.188 9.0332 235.559 8.99414 235.887 8.91602C236.219 8.83398 236.561 8.71484 236.912 8.55859V9.67773C236.588 9.83008 236.258 9.94141 235.922 10.0117C235.586 10.082 235.184 10.1172 234.715 10.1172C234.078 10.1172 233.518 9.99414 233.033 9.74805C232.553 9.49805 232.176 9.12695 231.902 8.63477C231.633 8.14258 231.498 7.53125 231.498 6.80078C231.498 6.07422 231.621 5.45703 231.867 4.94922C232.113 4.44141 232.459 4.05469 232.904 3.78906C233.35 3.52344 233.869 3.39062 234.463 3.39062ZM234.463 4.42773C234.029 4.42773 233.678 4.56836 233.408 4.84961C233.143 5.13086 232.986 5.54297 232.939 6.08594H235.893C235.889 5.76172 235.834 5.47461 235.729 5.22461C235.627 4.97461 235.471 4.7793 235.26 4.63867C235.053 4.49805 234.787 4.42773 234.463 4.42773ZM240.973 10.1172C240.199 10.1172 239.578 9.83594 239.109 9.27344C238.645 8.70703 238.412 7.87305 238.412 6.77148C238.412 5.6582 238.648 4.81641 239.121 4.24609C239.598 3.67578 240.225 3.39062 241.002 3.39062C241.33 3.39062 241.617 3.43555 241.863 3.52539C242.109 3.61133 242.32 3.72852 242.496 3.87695C242.676 4.02539 242.828 4.19141 242.953 4.375H243.018C242.998 4.25391 242.975 4.08008 242.947 3.85352C242.924 3.62305 242.912 3.41016 242.912 3.21484V0.882812H244.295V10H243.217L242.971 9.11523H242.912C242.795 9.30273 242.646 9.47266 242.467 9.625C242.291 9.77344 242.08 9.89258 241.834 9.98242C241.592 10.0723 241.305 10.1172 240.973 10.1172ZM241.359 8.99805C241.949 8.99805 242.365 8.82812 242.607 8.48828C242.85 8.14844 242.975 7.63867 242.982 6.95898V6.77734C242.982 6.05078 242.865 5.49414 242.631 5.10742C242.396 4.7168 241.969 4.52148 241.348 4.52148C240.852 4.52148 240.473 4.72266 240.211 5.125C239.953 5.52344 239.824 6.08008 239.824 6.79492C239.824 7.50977 239.953 8.05664 240.211 8.43555C240.473 8.81055 240.855 8.99805 241.359 8.99805ZM246.07 9.27344C246.07 8.95312 246.152 8.72852 246.316 8.59961C246.484 8.4668 246.688 8.40039 246.926 8.40039C247.164 8.40039 247.367 8.4668 247.535 8.59961C247.707 8.72852 247.793 8.95312 247.793 9.27344C247.793 9.58594 247.707 9.8125 247.535 9.95312C247.367 10.0898 247.164 10.1582 246.926 10.1582C246.688 10.1582 246.484 10.0898 246.316 9.95312C246.152 9.8125 246.07 9.58594 246.07 9.27344Z" fill="white"/>
</svg>
