<svg width="829" height="163" viewBox="0 0 829 163" fill="none" xmlns="http://www.w3.org/2000/svg">
<g clip-path="url(#clip0_336_91)">
<circle cx="195" cy="76" r="45" fill="white"/>
<circle cx="195" cy="76" r="40" fill="#194882"/>
<circle cx="195" cy="76" r="35" fill="white"/>
<circle cx="195" cy="76" r="30" fill="#194882"/>
<circle cx="195" cy="76" r="25" fill="white"/>
<circle cx="195" cy="76" r="20" fill="#194882"/>
<line x1="198.5" y1="31" x2="198.5" y2="57" stroke="#194882" stroke-width="3"/>
<line x1="196.5" y1="31" x2="196.5" y2="55" stroke="white" stroke-width="3"/>
<line x1="228.627" y1="48.1176" x2="210" y2="64.7925" stroke="white" stroke-width="3"/>
<line x1="231.002" y1="49.1166" x2="210.001" y2="67.9524" stroke="#194882" stroke-width="3"/>
<line x1="240" y1="81.5" x2="213" y2="81.5001" stroke="#194882" stroke-width="3"/>
<path d="M240.002 79.75H214.982" stroke="white" stroke-width="3"/>
<line x1="175" y1="77.5" x2="150" y2="77.5" stroke="#194882" stroke-width="3"/>
<line x1="175.006" y1="79.5" x2="150.004" y2="79.5986" stroke="white" stroke-width="3"/>
<path d="M181.056 60.7334L163.171 43.816" stroke="#194882" stroke-width="3"/>
<line x1="180.28" y1="62.1284" x2="161.978" y2="45.0981" stroke="white" stroke-width="3"/>
<line x1="224.939" y1="110.061" x2="206.229" y2="91.3505" stroke="#194882" stroke-width="3"/>
<line x1="226.967" y1="108.087" x2="206.967" y2="89.0873" stroke="white" stroke-width="3"/>
<line x1="194.5" y1="121" x2="194.5" y2="96" stroke="#194882" stroke-width="3"/>
<line x1="196.5" y1="121" x2="196.5" y2="94" stroke="white" stroke-width="3"/>
<line x1="163.905" y1="108.975" x2="180.754" y2="90.975" stroke="#194882" stroke-width="3"/>
<line x1="164.914" y1="109.965" x2="182.061" y2="91.9656" stroke="white" stroke-width="3"/>
<circle cx="195" cy="75" r="20.5" fill="#194882" stroke="white"/>
<path d="M37.25 52.9688V120H14.6719V35.4688H35.8438L37.25 52.9688ZM34.125 74.7656H27.875C27.875 68.8802 28.5781 63.4635 29.9844 58.5156C31.4427 53.5156 33.5521 49.1927 36.3125 45.5469C39.125 41.849 42.5885 38.9844 46.7031 36.9531C50.8177 34.9219 55.5833 33.9062 61 33.9062C64.75 33.9062 68.1875 34.4792 71.3125 35.625C74.4375 36.7188 77.1198 38.4635 79.3594 40.8594C81.651 43.2031 83.4219 46.276 84.6719 50.0781C85.9219 53.8281 86.5469 58.3333 86.5469 63.5938V120H64.0469V66.0938C64.0469 62.2396 63.526 59.2708 62.4844 57.1875C61.4427 55.1042 59.9583 53.6458 58.0312 52.8125C56.1562 51.9792 53.8906 51.5625 51.2344 51.5625C48.3177 51.5625 45.7656 52.1615 43.5781 53.3594C41.4427 54.5573 39.6719 56.224 38.2656 58.3594C36.8594 60.4427 35.8177 62.8906 35.1406 65.7031C34.4635 68.5156 34.125 71.5365 34.125 74.7656ZM84.4375 72.1875L76.3906 73.2031C76.3906 67.6823 77.0677 62.5521 78.4219 57.8125C79.8281 53.0729 81.8854 48.9062 84.5938 45.3125C87.3542 41.7188 90.7656 38.9323 94.8281 36.9531C98.8906 34.9219 103.578 33.9062 108.891 33.9062C112.953 33.9062 116.651 34.5052 119.984 35.7031C123.318 36.849 126.156 38.6979 128.5 41.25C130.896 43.75 132.719 47.0312 133.969 51.0938C135.271 55.1562 135.922 60.1302 135.922 66.0156V120H113.344V66.0156C113.344 62.1094 112.823 59.1406 111.781 57.1094C110.792 55.026 109.333 53.5938 107.406 52.8125C105.531 51.9792 103.292 51.5625 100.688 51.5625C97.9792 51.5625 95.6094 52.1094 93.5781 53.2031C91.5469 54.2448 89.8542 55.7031 88.5 57.5781C87.1458 59.4531 86.1302 61.6406 85.4531 64.1406C84.776 66.5885 84.4375 69.2708 84.4375 72.1875Z" fill="white"/>
<path d="M278.781 53.5156V120H256.281V35.4688H277.375L278.781 53.5156ZM275.5 74.7656H269.406C269.406 68.5156 270.214 62.8906 271.828 57.8906C273.443 52.8385 275.708 48.5417 278.625 45C281.542 41.4062 285.005 38.6719 289.016 36.7969C293.078 34.8698 297.609 33.9062 302.609 33.9062C306.568 33.9062 310.188 34.4792 313.469 35.625C316.75 36.7708 319.562 38.5938 321.906 41.0938C324.302 43.5938 326.125 46.901 327.375 51.0156C328.677 55.1302 329.328 60.1562 329.328 66.0938V120H306.672V66.0156C306.672 62.2656 306.151 59.349 305.109 57.2656C304.068 55.1823 302.531 53.724 300.5 52.8906C298.521 52.0052 296.073 51.5625 293.156 51.5625C290.135 51.5625 287.505 52.1615 285.266 53.3594C283.078 54.5573 281.255 56.224 279.797 58.3594C278.391 60.4427 277.323 62.8906 276.594 65.7031C275.865 68.5156 275.5 71.5365 275.5 74.7656ZM368.938 52.9688V120H346.359V35.4688H367.531L368.938 52.9688ZM365.812 74.7656H359.562C359.562 68.8802 360.266 63.4635 361.672 58.5156C363.13 53.5156 365.24 49.1927 368 45.5469C370.812 41.849 374.276 38.9844 378.391 36.9531C382.505 34.9219 387.271 33.9062 392.688 33.9062C396.438 33.9062 399.875 34.4792 403 35.625C406.125 36.7188 408.807 38.4635 411.047 40.8594C413.339 43.2031 415.109 46.276 416.359 50.0781C417.609 53.8281 418.234 58.3333 418.234 63.5938V120H395.734V66.0938C395.734 62.2396 395.214 59.2708 394.172 57.1875C393.13 55.1042 391.646 53.6458 389.719 52.8125C387.844 51.9792 385.578 51.5625 382.922 51.5625C380.005 51.5625 377.453 52.1615 375.266 53.3594C373.13 54.5573 371.359 56.224 369.953 58.3594C368.547 60.4427 367.505 62.8906 366.828 65.7031C366.151 68.5156 365.812 71.5365 365.812 74.7656ZM416.125 72.1875L408.078 73.2031C408.078 67.6823 408.755 62.5521 410.109 57.8125C411.516 53.0729 413.573 48.9062 416.281 45.3125C419.042 41.7188 422.453 38.9323 426.516 36.9531C430.578 34.9219 435.266 33.9062 440.578 33.9062C444.641 33.9062 448.339 34.5052 451.672 35.7031C455.005 36.849 457.844 38.6979 460.188 41.25C462.583 43.75 464.406 47.0312 465.656 51.0938C466.958 55.1562 467.609 60.1302 467.609 66.0156V120H445.031V66.0156C445.031 62.1094 444.51 59.1406 443.469 57.1094C442.479 55.026 441.021 53.5938 439.094 52.8125C437.219 51.9792 434.979 51.5625 432.375 51.5625C429.667 51.5625 427.297 52.1094 425.266 53.2031C423.234 54.2448 421.542 55.7031 420.188 57.5781C418.833 59.4531 417.818 61.6406 417.141 64.1406C416.464 66.5885 416.125 69.2708 416.125 72.1875ZM530.656 100.938V63.2812C530.656 60.5729 530.214 58.2552 529.328 56.3281C528.443 54.349 527.062 52.8125 525.188 51.7188C523.365 50.625 520.995 50.0781 518.078 50.0781C515.578 50.0781 513.417 50.5208 511.594 51.4062C509.771 52.2396 508.365 53.4635 507.375 55.0781C506.385 56.6406 505.891 58.4896 505.891 60.625H483.391C483.391 57.0312 484.224 53.6198 485.891 50.3906C487.557 47.1615 489.979 44.3229 493.156 41.875C496.333 39.375 500.109 37.4219 504.484 36.0156C508.911 34.6094 513.859 33.9062 519.328 33.9062C525.891 33.9062 531.724 35 536.828 37.1875C541.932 39.375 545.943 42.6562 548.859 47.0312C551.828 51.4062 553.312 56.875 553.312 63.4375V99.6094C553.312 104.245 553.599 108.047 554.172 111.016C554.745 113.932 555.578 116.484 556.672 118.672V120H533.938C532.844 117.708 532.01 114.844 531.438 111.406C530.917 107.917 530.656 104.427 530.656 100.938ZM533.625 68.5156L533.781 81.25H521.203C518.234 81.25 515.656 81.5885 513.469 82.2656C511.281 82.9427 509.484 83.9062 508.078 85.1562C506.672 86.3542 505.63 87.7604 504.953 89.375C504.328 90.9896 504.016 92.7604 504.016 94.6875C504.016 96.6146 504.458 98.3594 505.344 99.9219C506.229 101.432 507.505 102.63 509.172 103.516C510.839 104.349 512.792 104.766 515.031 104.766C518.417 104.766 521.359 104.089 523.859 102.734C526.359 101.38 528.286 99.7135 529.641 97.7344C531.047 95.7552 531.776 93.8802 531.828 92.1094L537.766 101.641C536.932 103.776 535.786 105.99 534.328 108.281C532.922 110.573 531.125 112.734 528.938 114.766C526.75 116.745 524.12 118.385 521.047 119.688C517.974 120.938 514.328 121.562 510.109 121.562C504.745 121.562 499.875 120.495 495.5 118.359C491.177 116.172 487.74 113.177 485.188 109.375C482.688 105.521 481.438 101.146 481.438 96.25C481.438 91.8229 482.271 87.8906 483.938 84.4531C485.604 81.0156 488.052 78.125 491.281 75.7812C494.562 73.3854 498.651 71.5885 503.547 70.3906C508.443 69.1406 514.12 68.5156 520.578 68.5156H533.625ZM612.062 35.4688V51.4062H562.844V35.4688H612.062ZM575.031 14.6094H597.531V94.5312C597.531 96.9792 597.844 98.8542 598.469 100.156C599.146 101.458 600.135 102.37 601.438 102.891C602.74 103.359 604.38 103.594 606.359 103.594C607.766 103.594 609.016 103.542 610.109 103.438C611.255 103.281 612.219 103.125 613 102.969L613.078 119.531C611.151 120.156 609.068 120.651 606.828 121.016C604.589 121.38 602.115 121.562 599.406 121.562C594.458 121.562 590.135 120.755 586.438 119.141C582.792 117.474 579.979 114.818 578 111.172C576.021 107.526 575.031 102.734 575.031 96.7969V14.6094ZM648.625 35.4688V120H626.047V35.4688H648.625ZM624.641 13.4375C624.641 10.1562 625.786 7.44792 628.078 5.3125C630.37 3.17708 633.443 2.10938 637.297 2.10938C641.099 2.10938 644.146 3.17708 646.438 5.3125C648.781 7.44792 649.953 10.1562 649.953 13.4375C649.953 16.7188 648.781 19.4271 646.438 21.5625C644.146 23.6979 641.099 24.7656 637.297 24.7656C633.443 24.7656 630.37 23.6979 628.078 21.5625C625.786 19.4271 624.641 16.7188 624.641 13.4375ZM702.141 103.984C704.901 103.984 707.349 103.464 709.484 102.422C711.62 101.328 713.286 99.8177 714.484 97.8906C715.734 95.9115 716.385 93.5938 716.438 90.9375H737.609C737.557 96.875 735.969 102.161 732.844 106.797C729.719 111.38 725.526 115 720.266 117.656C715.005 120.26 709.12 121.562 702.609 121.562C696.047 121.562 690.318 120.469 685.422 118.281C680.578 116.094 676.542 113.073 673.312 109.219C670.083 105.312 667.661 100.781 666.047 95.625C664.432 90.4167 663.625 84.8438 663.625 78.9062V76.6406C663.625 70.651 664.432 65.0781 666.047 59.9219C667.661 54.7135 670.083 50.1823 673.312 46.3281C676.542 42.4219 680.578 39.375 685.422 37.1875C690.266 35 695.943 33.9062 702.453 33.9062C709.38 33.9062 715.448 35.2344 720.656 37.8906C725.917 40.5469 730.031 44.349 733 49.2969C736.021 54.1927 737.557 60 737.609 66.7188H716.438C716.385 63.9062 715.786 61.3542 714.641 59.0625C713.547 56.7708 711.932 54.9479 709.797 53.5938C707.714 52.1875 705.135 51.4844 702.062 51.4844C698.781 51.4844 696.099 52.1875 694.016 53.5938C691.932 54.9479 690.318 56.8229 689.172 59.2188C688.026 61.5625 687.219 64.2448 686.75 67.2656C686.333 70.2344 686.125 73.3594 686.125 76.6406V78.9062C686.125 82.1875 686.333 85.3385 686.75 88.3594C687.167 91.3802 687.948 94.0625 689.094 96.4062C690.292 98.75 691.932 100.599 694.016 101.953C696.099 103.307 698.807 103.984 702.141 103.984ZM796.359 96.6406C796.359 95.026 795.891 93.5677 794.953 92.2656C794.016 90.9635 792.271 89.7656 789.719 88.6719C787.219 87.526 783.599 86.4844 778.859 85.5469C774.589 84.6094 770.604 83.4375 766.906 82.0312C763.26 80.5729 760.083 78.8281 757.375 76.7969C754.719 74.7656 752.635 72.3698 751.125 69.6094C749.615 66.7969 748.859 63.5938 748.859 60C748.859 56.4583 749.615 53.125 751.125 50C752.688 46.875 754.901 44.1146 757.766 41.7188C760.682 39.2708 764.224 37.3698 768.391 36.0156C772.609 34.6094 777.349 33.9062 782.609 33.9062C789.953 33.9062 796.255 35.0781 801.516 37.4219C806.828 39.7656 810.891 42.9948 813.703 47.1094C816.568 51.1719 818 55.8073 818 61.0156H795.5C795.5 58.8281 795.031 56.875 794.094 55.1562C793.208 53.3854 791.802 52.0052 789.875 51.0156C788 49.974 785.552 49.4531 782.531 49.4531C780.031 49.4531 777.87 49.8958 776.047 50.7812C774.224 51.6146 772.818 52.7604 771.828 54.2188C770.891 55.625 770.422 57.1875 770.422 58.9062C770.422 60.2083 770.682 61.3802 771.203 62.4219C771.776 63.4115 772.688 64.3229 773.938 65.1562C775.188 65.9896 776.802 66.7708 778.781 67.5C780.812 68.1771 783.312 68.8021 786.281 69.375C792.375 70.625 797.818 72.2656 802.609 74.2969C807.401 76.276 811.203 78.9844 814.016 82.4219C816.828 85.8073 818.234 90.2604 818.234 95.7812C818.234 99.5312 817.401 102.969 815.734 106.094C814.068 109.219 811.672 111.953 808.547 114.297C805.422 116.589 801.672 118.385 797.297 119.688C792.974 120.938 788.104 121.562 782.688 121.562C774.823 121.562 768.156 120.156 762.688 117.344C757.271 114.531 753.156 110.964 750.344 106.641C747.583 102.266 746.203 97.7865 746.203 93.2031H767.531C767.635 96.276 768.417 98.75 769.875 100.625C771.385 102.5 773.286 103.854 775.578 104.688C777.922 105.521 780.448 105.938 783.156 105.938C786.073 105.938 788.495 105.547 790.422 104.766C792.349 103.932 793.807 102.839 794.797 101.484C795.839 100.078 796.359 98.4635 796.359 96.6406Z" fill="white"/>
</g>
<defs>
<clipPath id="clip0_336_91">
<rect width="829" height="163" fill="white"/>
</clipPath>
</defs>
</svg>
