<svg width="152" height="43" viewBox="0 0 152 43" fill="none" xmlns="http://www.w3.org/2000/svg">
<rect x="0.5" y="0.5" width="151" height="42" rx="9.5" fill="white" stroke="#023C82"/>
<path d="M19.7041 27H18.2012V15.4688H14.1582V14.1504H23.7295V15.4688H19.7041V27ZM29.8291 17.1914C30.0225 17.1914 30.2246 17.2031 30.4355 17.2266C30.6465 17.2441 30.834 17.2705 30.998 17.3057L30.8135 18.6592C30.6553 18.6182 30.4795 18.5859 30.2861 18.5625C30.0928 18.5391 29.9111 18.5273 29.7412 18.5273C29.3545 18.5273 28.9883 18.6064 28.6426 18.7646C28.3027 18.917 28.0039 19.1396 27.7461 19.4326C27.4883 19.7197 27.2861 20.0684 27.1396 20.4785C26.9932 20.8828 26.9199 21.334 26.9199 21.832V27H25.4521V17.3672H26.665L26.8232 19.1426H26.8848C27.084 18.7852 27.3242 18.46 27.6055 18.167C27.8867 17.8682 28.2119 17.6309 28.5811 17.4551C28.9561 17.2793 29.3721 17.1914 29.8291 17.1914ZM31.2969 17.3672H32.8613L34.9883 22.957C35.1113 23.2852 35.2256 23.6016 35.3311 23.9062C35.4365 24.2051 35.5303 24.4922 35.6123 24.7676C35.6943 25.043 35.7588 25.3096 35.8057 25.5674H35.8672C35.9492 25.2744 36.0664 24.8906 36.2188 24.416C36.3711 23.9355 36.5352 23.4463 36.7109 22.9482L38.7236 17.3672H40.2969L36.1045 28.415C35.8818 29.0068 35.6211 29.5225 35.3223 29.9619C35.0293 30.4014 34.6719 30.7383 34.25 30.9727C33.8281 31.2129 33.3184 31.333 32.7207 31.333C32.4453 31.333 32.2021 31.3154 31.9912 31.2803C31.7803 31.251 31.5986 31.2158 31.4463 31.1748V30.0059C31.5752 30.0352 31.7305 30.0615 31.9121 30.085C32.0996 30.1084 32.293 30.1201 32.4922 30.1201C32.8555 30.1201 33.1689 30.0498 33.4326 29.9092C33.7021 29.7744 33.9336 29.5752 34.127 29.3115C34.3203 29.0479 34.4873 28.7344 34.6279 28.3711L35.1553 27.0176L31.2969 17.3672ZM56.9697 17.1914C58.0303 17.1914 58.8301 17.4697 59.3691 18.0264C59.9082 18.5771 60.1777 19.4648 60.1777 20.6895V27H58.7363V20.7598C58.7363 19.9805 58.5664 19.3975 58.2266 19.0107C57.8926 18.6182 57.3945 18.4219 56.7324 18.4219C55.8008 18.4219 55.124 18.6914 54.7021 19.2305C54.2803 19.7695 54.0693 20.5635 54.0693 21.6123V27H52.6191V20.7598C52.6191 20.2383 52.543 19.8047 52.3906 19.459C52.2441 19.1133 52.0215 18.8555 51.7227 18.6855C51.4297 18.5098 51.0576 18.4219 50.6064 18.4219C49.9678 18.4219 49.4551 18.5537 49.0684 18.8174C48.6816 19.0811 48.4004 19.4736 48.2246 19.9951C48.0547 20.5107 47.9697 21.1465 47.9697 21.9023V27H46.5107V17.3672H47.6885L47.9082 18.7295H47.9873C48.1807 18.3955 48.4238 18.1143 48.7168 17.8857C49.0098 17.6572 49.3379 17.4844 49.7012 17.3672C50.0645 17.25 50.4512 17.1914 50.8613 17.1914C51.5938 17.1914 52.2061 17.3291 52.6982 17.6045C53.1963 17.874 53.5566 18.2871 53.7793 18.8438H53.8584C54.1748 18.2871 54.6084 17.874 55.1592 17.6045C55.71 17.3291 56.3135 17.1914 56.9697 17.1914ZM71.4805 22.166C71.4805 22.957 71.3779 23.6631 71.1729 24.2842C70.9678 24.9053 70.6719 25.4297 70.2852 25.8574C69.8984 26.2852 69.4297 26.6133 68.8789 26.8418C68.334 27.0645 67.7158 27.1758 67.0244 27.1758C66.3799 27.1758 65.7881 27.0645 65.249 26.8418C64.7158 26.6133 64.2529 26.2852 63.8604 25.8574C63.4736 25.4297 63.1719 24.9053 62.9551 24.2842C62.7441 23.6631 62.6387 22.957 62.6387 22.166C62.6387 21.1113 62.8174 20.2148 63.1748 19.4766C63.5322 18.7324 64.042 18.167 64.7041 17.7803C65.3721 17.3877 66.166 17.1914 67.0859 17.1914C67.9648 17.1914 68.7324 17.3877 69.3887 17.7803C70.0508 18.1729 70.5635 18.7412 70.9268 19.4854C71.2959 20.2236 71.4805 21.1172 71.4805 22.166ZM64.1504 22.166C64.1504 22.9395 64.2529 23.6104 64.458 24.1787C64.6631 24.7471 64.9795 25.1865 65.4072 25.4971C65.835 25.8076 66.3857 25.9629 67.0596 25.9629C67.7275 25.9629 68.2754 25.8076 68.7031 25.4971C69.1367 25.1865 69.4561 24.7471 69.6611 24.1787C69.8662 23.6104 69.9688 22.9395 69.9688 22.166C69.9688 21.3984 69.8662 20.7363 69.6611 20.1797C69.4561 19.6172 69.1396 19.1836 68.7119 18.8789C68.2842 18.5742 67.7305 18.4219 67.0508 18.4219C66.0488 18.4219 65.3135 18.7529 64.8447 19.415C64.3818 20.0771 64.1504 20.9941 64.1504 22.166ZM78.5645 17.1914C79.707 17.1914 80.5713 17.4727 81.1572 18.0352C81.7432 18.5918 82.0361 19.4883 82.0361 20.7246V27H80.5947V20.8213C80.5947 20.0186 80.4102 19.418 80.041 19.0195C79.6777 18.6211 79.1182 18.4219 78.3623 18.4219C77.2959 18.4219 76.5459 18.7236 76.1123 19.3271C75.6787 19.9307 75.4619 20.8066 75.4619 21.9551V27H74.0029V17.3672H75.1807L75.4004 18.7559H75.4795C75.6846 18.416 75.9453 18.1318 76.2617 17.9033C76.5781 17.6689 76.9326 17.4932 77.3252 17.376C77.7178 17.2529 78.1309 17.1914 78.5645 17.1914ZM95.501 17.1914C96.5615 17.1914 97.3613 17.4697 97.9004 18.0264C98.4395 18.5771 98.709 19.4648 98.709 20.6895V27H97.2676V20.7598C97.2676 19.9805 97.0977 19.3975 96.7578 19.0107C96.4238 18.6182 95.9258 18.4219 95.2637 18.4219C94.332 18.4219 93.6553 18.6914 93.2334 19.2305C92.8115 19.7695 92.6006 20.5635 92.6006 21.6123V27H91.1504V20.7598C91.1504 20.2383 91.0742 19.8047 90.9219 19.459C90.7754 19.1133 90.5527 18.8555 90.2539 18.6855C89.9609 18.5098 89.5889 18.4219 89.1377 18.4219C88.499 18.4219 87.9863 18.5537 87.5996 18.8174C87.2129 19.0811 86.9316 19.4736 86.7559 19.9951C86.5859 20.5107 86.501 21.1465 86.501 21.9023V27H85.042V17.3672H86.2197L86.4395 18.7295H86.5186C86.7119 18.3955 86.9551 18.1143 87.248 17.8857C87.541 17.6572 87.8691 17.4844 88.2324 17.3672C88.5957 17.25 88.9824 17.1914 89.3926 17.1914C90.125 17.1914 90.7373 17.3291 91.2295 17.6045C91.7275 17.874 92.0879 18.2871 92.3105 18.8438H92.3896C92.7061 18.2871 93.1396 17.874 93.6904 17.6045C94.2412 17.3291 94.8447 17.1914 95.501 17.1914ZM105.31 17.209C106.458 17.209 107.311 17.4668 107.867 17.9824C108.424 18.498 108.702 19.3213 108.702 20.4521V27H107.639L107.357 25.5762H107.287C107.018 25.9277 106.736 26.2236 106.443 26.4639C106.15 26.6982 105.811 26.877 105.424 27C105.043 27.1172 104.574 27.1758 104.018 27.1758C103.432 27.1758 102.91 27.0732 102.453 26.8682C102.002 26.6631 101.645 26.3525 101.381 25.9365C101.123 25.5205 100.994 24.9932 100.994 24.3545C100.994 23.3936 101.375 22.6553 102.137 22.1396C102.898 21.624 104.059 21.3428 105.617 21.2959L107.278 21.2256V20.6367C107.278 19.8047 107.1 19.2217 106.742 18.8877C106.385 18.5537 105.881 18.3867 105.23 18.3867C104.727 18.3867 104.246 18.46 103.789 18.6064C103.332 18.7529 102.898 18.9258 102.488 19.125L102.04 18.0176C102.474 17.7949 102.972 17.6045 103.534 17.4463C104.097 17.2881 104.688 17.209 105.31 17.209ZM107.261 22.2539L105.793 22.3154C104.592 22.3623 103.745 22.5586 103.253 22.9043C102.761 23.25 102.515 23.7393 102.515 24.3721C102.515 24.9229 102.682 25.3301 103.016 25.5938C103.35 25.8574 103.792 25.9893 104.343 25.9893C105.198 25.9893 105.898 25.752 106.443 25.2773C106.988 24.8027 107.261 24.0908 107.261 23.1416V22.2539ZM114.819 25.9805C115.06 25.9805 115.306 25.96 115.558 25.9189C115.81 25.8779 116.015 25.8281 116.173 25.7695V26.9033C116.003 26.9795 115.766 27.0439 115.461 27.0967C115.162 27.1494 114.869 27.1758 114.582 27.1758C114.072 27.1758 113.609 27.0879 113.193 26.9121C112.777 26.7305 112.443 26.4258 112.191 25.998C111.945 25.5703 111.822 24.9785 111.822 24.2227V18.5098H110.451V17.7979L111.831 17.2266L112.411 15.1348H113.29V17.3672H116.111V18.5098H113.29V24.1787C113.29 24.7822 113.428 25.2334 113.703 25.5322C113.984 25.8311 114.356 25.9805 114.819 25.9805ZM119.583 17.3672V27H118.124V17.3672H119.583ZM118.871 13.7637C119.111 13.7637 119.316 13.8428 119.486 14.001C119.662 14.1533 119.75 14.3936 119.75 14.7217C119.75 15.0439 119.662 15.2842 119.486 15.4424C119.316 15.6006 119.111 15.6797 118.871 15.6797C118.619 15.6797 118.408 15.6006 118.238 15.4424C118.074 15.2842 117.992 15.0439 117.992 14.7217C117.992 14.3936 118.074 14.1533 118.238 14.001C118.408 13.8428 118.619 13.7637 118.871 13.7637ZM126.535 27.1758C125.668 27.1758 124.903 26.9971 124.241 26.6396C123.579 26.2822 123.063 25.7373 122.694 25.0049C122.325 24.2725 122.141 23.3496 122.141 22.2363C122.141 21.0703 122.334 20.1182 122.721 19.3799C123.113 18.6357 123.652 18.085 124.338 17.7275C125.023 17.3701 125.803 17.1914 126.676 17.1914C127.156 17.1914 127.619 17.2412 128.064 17.3408C128.516 17.4346 128.885 17.5547 129.172 17.7012L128.732 18.9229C128.439 18.8057 128.1 18.7002 127.713 18.6064C127.332 18.5127 126.975 18.4658 126.641 18.4658C125.973 18.4658 125.416 18.6094 124.971 18.8965C124.531 19.1836 124.2 19.6055 123.978 20.1621C123.761 20.7188 123.652 21.4043 123.652 22.2188C123.652 22.998 123.758 23.6631 123.969 24.2139C124.186 24.7646 124.505 25.1865 124.927 25.4795C125.354 25.7666 125.888 25.9102 126.526 25.9102C127.036 25.9102 127.496 25.8574 127.906 25.752C128.316 25.6406 128.688 25.5117 129.022 25.3652V26.666C128.7 26.8301 128.34 26.9561 127.941 27.0439C127.549 27.1318 127.08 27.1758 126.535 27.1758ZM137.539 24.3633C137.539 24.9785 137.384 25.4971 137.073 25.9189C136.769 26.335 136.329 26.6484 135.755 26.8594C135.187 27.0703 134.507 27.1758 133.716 27.1758C133.042 27.1758 132.459 27.123 131.967 27.0176C131.475 26.9121 131.044 26.7627 130.675 26.5693V25.2246C131.067 25.418 131.536 25.5938 132.081 25.752C132.626 25.9102 133.183 25.9893 133.751 25.9893C134.583 25.9893 135.187 25.8545 135.562 25.585C135.937 25.3154 136.124 24.9492 136.124 24.4863C136.124 24.2227 136.048 23.9912 135.896 23.792C135.749 23.5869 135.5 23.3906 135.148 23.2031C134.797 23.0098 134.311 22.7988 133.689 22.5703C133.074 22.3359 132.541 22.1045 132.09 21.876C131.645 21.6416 131.299 21.3574 131.053 21.0234C130.812 20.6895 130.692 20.2559 130.692 19.7227C130.692 18.9082 131.021 18.2842 131.677 17.8506C132.339 17.4111 133.206 17.1914 134.278 17.1914C134.858 17.1914 135.4 17.25 135.904 17.3672C136.414 17.4785 136.889 17.6309 137.328 17.8242L136.836 18.9932C136.438 18.8232 136.013 18.6797 135.562 18.5625C135.11 18.4453 134.65 18.3867 134.182 18.3867C133.508 18.3867 132.989 18.498 132.626 18.7207C132.269 18.9434 132.09 19.248 132.09 19.6348C132.09 19.9336 132.172 20.1797 132.336 20.373C132.506 20.5664 132.775 20.748 133.145 20.918C133.514 21.0879 134 21.2871 134.604 21.5156C135.207 21.7383 135.729 21.9697 136.168 22.21C136.607 22.4443 136.944 22.7314 137.179 23.0713C137.419 23.4053 137.539 23.8359 137.539 24.3633Z" fill="#023C82"/>
</svg>
