<svg width="168" height="43" viewBox="0 0 168 43" fill="none" xmlns="http://www.w3.org/2000/svg">
<rect x="0.5" y="0.5" width="167" height="42" fill="#DC7210" stroke="#DC7210"/>
<path d="M14.9717 28H13.1348V13.9062H8.19336V12.2949H19.8916V13.9062H14.9717V28ZM27.3467 16.0117C27.583 16.0117 27.8301 16.026 28.0879 16.0547C28.3457 16.0762 28.5749 16.1084 28.7754 16.1514L28.5498 17.8057C28.3564 17.7555 28.1416 17.7161 27.9053 17.6875C27.6689 17.6589 27.4469 17.6445 27.2393 17.6445C26.7666 17.6445 26.319 17.7412 25.8965 17.9346C25.4811 18.1208 25.1159 18.3929 24.8008 18.751C24.4857 19.1019 24.2386 19.528 24.0596 20.0293C23.8805 20.5234 23.791 21.0749 23.791 21.6836V28H21.9971V16.2266H23.4795L23.6729 18.3965H23.748C23.9915 17.9596 24.2852 17.5622 24.6289 17.2041C24.9727 16.8389 25.3701 16.5488 25.8213 16.334C26.2796 16.1191 26.7881 16.0117 27.3467 16.0117ZM29.1406 16.2266H31.0527L33.6523 23.0586C33.8027 23.4596 33.9424 23.8464 34.0713 24.2188C34.2002 24.584 34.3148 24.9349 34.415 25.2715C34.5153 25.6081 34.5941 25.9339 34.6514 26.249H34.7266C34.8268 25.891 34.9701 25.4219 35.1562 24.8418C35.3424 24.2546 35.543 23.6566 35.7578 23.0479L38.2178 16.2266H40.1406L35.0166 29.7295C34.7445 30.4528 34.4258 31.083 34.0605 31.6201C33.7025 32.1572 33.2656 32.569 32.75 32.8555C32.2344 33.1491 31.6113 33.2959 30.8809 33.2959C30.5443 33.2959 30.2471 33.2744 29.9893 33.2314C29.7314 33.1956 29.5094 33.1527 29.3232 33.1025V31.6738C29.4808 31.7096 29.6706 31.7419 29.8926 31.7705C30.1217 31.7992 30.3581 31.8135 30.6016 31.8135C31.0456 31.8135 31.4287 31.7275 31.751 31.5557C32.0804 31.391 32.3633 31.1475 32.5996 30.8252C32.8359 30.5029 33.04 30.1198 33.2119 29.6758L33.8564 28.0215L29.1406 16.2266ZM60.5186 16.0117C61.8148 16.0117 62.7923 16.3519 63.4512 17.0322C64.11 17.7054 64.4395 18.7904 64.4395 20.2871V28H62.6777V20.373C62.6777 19.4206 62.4701 18.708 62.0547 18.2354C61.6465 17.7555 61.0378 17.5156 60.2285 17.5156C59.0898 17.5156 58.2627 17.8451 57.7471 18.5039C57.2314 19.1628 56.9736 20.1331 56.9736 21.415V28H55.2012V20.373C55.2012 19.7357 55.1081 19.2057 54.9219 18.7832C54.7428 18.3607 54.4707 18.0456 54.1055 17.8379C53.7474 17.623 53.2926 17.5156 52.7412 17.5156C51.9606 17.5156 51.334 17.6768 50.8613 17.999C50.3887 18.3213 50.0449 18.8011 49.8301 19.4385C49.6224 20.0687 49.5186 20.8457 49.5186 21.7695V28H47.7354V16.2266H49.1748L49.4434 17.8916H49.54C49.7764 17.4834 50.0736 17.1396 50.4316 16.8604C50.7897 16.5811 51.1908 16.3698 51.6348 16.2266C52.0788 16.0833 52.5514 16.0117 53.0527 16.0117C53.9479 16.0117 54.6963 16.18 55.2979 16.5166C55.9066 16.846 56.347 17.3509 56.6191 18.0312H56.7158C57.1025 17.3509 57.6325 16.846 58.3057 16.5166C58.9788 16.18 59.7165 16.0117 60.5186 16.0117ZM78.2539 22.0918C78.2539 23.0586 78.1286 23.9215 77.8779 24.6807C77.6273 25.4398 77.2656 26.0807 76.793 26.6035C76.3203 27.1263 75.7474 27.5273 75.0742 27.8066C74.4082 28.0788 73.6527 28.2148 72.8076 28.2148C72.0199 28.2148 71.2965 28.0788 70.6377 27.8066C69.986 27.5273 69.4202 27.1263 68.9404 26.6035C68.4678 26.0807 68.099 25.4398 67.834 24.6807C67.5762 23.9215 67.4473 23.0586 67.4473 22.0918C67.4473 20.8027 67.6657 19.707 68.1025 18.8047C68.5394 17.8952 69.1624 17.2041 69.9717 16.7314C70.7881 16.2516 71.7585 16.0117 72.8828 16.0117C73.957 16.0117 74.8952 16.2516 75.6973 16.7314C76.5065 17.2113 77.1331 17.9059 77.5771 18.8154C78.0283 19.7178 78.2539 20.8099 78.2539 22.0918ZM69.2949 22.0918C69.2949 23.0371 69.4202 23.8571 69.6709 24.5518C69.9215 25.2464 70.3083 25.7835 70.8311 26.1631C71.3538 26.5426 72.027 26.7324 72.8506 26.7324C73.667 26.7324 74.3366 26.5426 74.8594 26.1631C75.3893 25.7835 75.7796 25.2464 76.0303 24.5518C76.2809 23.8571 76.4062 23.0371 76.4062 22.0918C76.4062 21.1536 76.2809 20.3444 76.0303 19.6641C75.7796 18.9766 75.3929 18.4466 74.8701 18.0742C74.3473 17.7018 73.6706 17.5156 72.8398 17.5156C71.6152 17.5156 70.7165 17.9202 70.1436 18.7295C69.5778 19.5387 69.2949 20.6595 69.2949 22.0918ZM86.9121 16.0117C88.3086 16.0117 89.3649 16.3555 90.0811 17.043C90.7972 17.7233 91.1553 18.819 91.1553 20.3301V28H89.3936V20.4482C89.3936 19.4671 89.168 18.7331 88.7168 18.2461C88.2728 17.7591 87.5889 17.5156 86.665 17.5156C85.3617 17.5156 84.445 17.8844 83.915 18.6221C83.3851 19.3597 83.1201 20.4303 83.1201 21.834V28H81.3369V16.2266H82.7764L83.0449 17.9238H83.1416C83.3923 17.5085 83.7109 17.1611 84.0977 16.8818C84.4844 16.5954 84.9176 16.3805 85.3975 16.2373C85.8773 16.0869 86.3822 16.0117 86.9121 16.0117ZM107.612 16.0117C108.909 16.0117 109.886 16.3519 110.545 17.0322C111.204 17.7054 111.533 18.7904 111.533 20.2871V28H109.771V20.373C109.771 19.4206 109.564 18.708 109.148 18.2354C108.74 17.7555 108.132 17.5156 107.322 17.5156C106.184 17.5156 105.356 17.8451 104.841 18.5039C104.325 19.1628 104.067 20.1331 104.067 21.415V28H102.295V20.373C102.295 19.7357 102.202 19.2057 102.016 18.7832C101.837 18.3607 101.564 18.0456 101.199 17.8379C100.841 17.623 100.386 17.5156 99.835 17.5156C99.0544 17.5156 98.4277 17.6768 97.9551 17.999C97.4824 18.3213 97.1387 18.8011 96.9238 19.4385C96.7161 20.0687 96.6123 20.8457 96.6123 21.7695V28H94.8291V16.2266H96.2686L96.5371 17.8916H96.6338C96.8701 17.4834 97.1673 17.1396 97.5254 16.8604C97.8835 16.5811 98.2845 16.3698 98.7285 16.2266C99.1725 16.0833 99.6452 16.0117 100.146 16.0117C101.042 16.0117 101.79 16.18 102.392 16.5166C103 16.846 103.441 17.3509 103.713 18.0312H103.81C104.196 17.3509 104.726 16.846 105.399 16.5166C106.073 16.18 106.81 16.0117 107.612 16.0117ZM119.601 16.0332C121.004 16.0332 122.046 16.3483 122.727 16.9785C123.407 17.6087 123.747 18.6149 123.747 19.9971V28H122.447L122.104 26.2598H122.018C121.688 26.6895 121.344 27.0511 120.986 27.3447C120.628 27.6312 120.213 27.8496 119.74 28C119.275 28.1432 118.702 28.2148 118.021 28.2148C117.305 28.2148 116.668 28.0895 116.109 27.8389C115.558 27.5882 115.121 27.2087 114.799 26.7002C114.484 26.1917 114.326 25.5472 114.326 24.7666C114.326 23.5921 114.792 22.6898 115.723 22.0596C116.654 21.4294 118.072 21.0856 119.977 21.0283L122.007 20.9424V20.2227C122.007 19.2057 121.788 18.4932 121.352 18.085C120.915 17.6768 120.299 17.4727 119.504 17.4727C118.888 17.4727 118.301 17.5622 117.742 17.7412C117.184 17.9202 116.654 18.1315 116.152 18.375L115.604 17.0215C116.134 16.7493 116.743 16.5166 117.431 16.3232C118.118 16.1299 118.841 16.0332 119.601 16.0332ZM121.985 22.1992L120.191 22.2744C118.723 22.3317 117.688 22.5716 117.087 22.9941C116.485 23.4167 116.185 24.0146 116.185 24.7881C116.185 25.4613 116.389 25.959 116.797 26.2812C117.205 26.6035 117.746 26.7646 118.419 26.7646C119.465 26.7646 120.32 26.4746 120.986 25.8945C121.652 25.3145 121.985 24.4443 121.985 23.2842V22.1992ZM131.224 26.7539C131.517 26.7539 131.818 26.7288 132.126 26.6787C132.434 26.6286 132.685 26.5677 132.878 26.4961V27.8818C132.67 27.9749 132.38 28.0537 132.008 28.1182C131.643 28.1826 131.285 28.2148 130.934 28.2148C130.311 28.2148 129.745 28.1074 129.236 27.8926C128.728 27.6706 128.32 27.2982 128.012 26.7754C127.711 26.2526 127.561 25.5293 127.561 24.6055V17.623H125.885V16.7529L127.571 16.0547L128.28 13.498H129.354V16.2266H132.803V17.623H129.354V24.5518C129.354 25.2894 129.523 25.8408 129.859 26.2061C130.203 26.5713 130.658 26.7539 131.224 26.7539ZM137.046 16.2266V28H135.263V16.2266H137.046ZM136.176 11.8223C136.469 11.8223 136.72 11.9189 136.928 12.1123C137.143 12.2985 137.25 12.5921 137.25 12.9932C137.25 13.387 137.143 13.6807 136.928 13.874C136.72 14.0674 136.469 14.1641 136.176 14.1641C135.868 14.1641 135.61 14.0674 135.402 13.874C135.202 13.6807 135.102 13.387 135.102 12.9932C135.102 12.5921 135.202 12.2985 135.402 12.1123C135.61 11.9189 135.868 11.8223 136.176 11.8223ZM145.543 28.2148C144.483 28.2148 143.549 27.9964 142.739 27.5596C141.93 27.1227 141.3 26.4567 140.849 25.5615C140.397 24.6663 140.172 23.5384 140.172 22.1777C140.172 20.7526 140.408 19.5889 140.881 18.6865C141.361 17.777 142.02 17.1038 142.857 16.667C143.695 16.2301 144.648 16.0117 145.715 16.0117C146.302 16.0117 146.868 16.0726 147.412 16.1943C147.964 16.3089 148.415 16.4557 148.766 16.6348L148.229 18.1279C147.87 17.9847 147.455 17.8558 146.982 17.7412C146.517 17.6266 146.08 17.5693 145.672 17.5693C144.855 17.5693 144.175 17.7448 143.631 18.0957C143.094 18.4466 142.689 18.9622 142.417 19.6426C142.152 20.3229 142.02 21.1608 142.02 22.1562C142.02 23.1087 142.148 23.9215 142.406 24.5947C142.671 25.2679 143.062 25.7835 143.577 26.1416C144.1 26.4925 144.752 26.668 145.532 26.668C146.155 26.668 146.717 26.6035 147.219 26.4746C147.72 26.3385 148.175 26.181 148.583 26.002V27.5918C148.189 27.7923 147.749 27.9463 147.262 28.0537C146.782 28.1611 146.209 28.2148 145.543 28.2148ZM158.992 24.7773C158.992 25.5293 158.802 26.1631 158.423 26.6787C158.05 27.1872 157.513 27.5703 156.812 27.8281C156.117 28.0859 155.286 28.2148 154.319 28.2148C153.496 28.2148 152.783 28.1504 152.182 28.0215C151.58 27.8926 151.054 27.71 150.603 27.4736V25.8301C151.082 26.0664 151.655 26.2812 152.321 26.4746C152.987 26.668 153.668 26.7646 154.362 26.7646C155.379 26.7646 156.117 26.5999 156.575 26.2705C157.034 25.9411 157.263 25.4935 157.263 24.9277C157.263 24.6055 157.17 24.3226 156.983 24.0791C156.804 23.8285 156.5 23.5885 156.07 23.3594C155.641 23.123 155.046 22.8652 154.287 22.5859C153.535 22.2995 152.883 22.0166 152.332 21.7373C151.788 21.4508 151.365 21.1035 151.064 20.6953C150.771 20.2871 150.624 19.7572 150.624 19.1055C150.624 18.11 151.025 17.3473 151.827 16.8174C152.636 16.2803 153.696 16.0117 155.007 16.0117C155.716 16.0117 156.378 16.0833 156.994 16.2266C157.617 16.3626 158.197 16.5488 158.734 16.7852L158.133 18.2139C157.646 18.0062 157.127 17.8307 156.575 17.6875C156.024 17.5443 155.462 17.4727 154.889 17.4727C154.065 17.4727 153.431 17.6087 152.987 17.8809C152.55 18.153 152.332 18.5254 152.332 18.998C152.332 19.3633 152.432 19.6641 152.633 19.9004C152.84 20.1367 153.17 20.3587 153.621 20.5664C154.072 20.7741 154.667 21.0176 155.404 21.2969C156.142 21.569 156.779 21.8519 157.316 22.1455C157.854 22.432 158.265 22.7829 158.552 23.1982C158.845 23.6064 158.992 24.1328 158.992 24.7773Z" fill="white"/>
</svg>
