<svg width="186" height="50" viewBox="0 0 186 50" fill="none" xmlns="http://www.w3.org/2000/svg">
<rect x="0.5" y="0.5" width="185" height="49" rx="9.5" fill="#DC7210" stroke="#DC7210"/>
<path d="M22.9717 32H21.1348V17.9062H16.1934V16.2949H27.8916V17.9062H22.9717V32ZM35.3467 20.0117C35.583 20.0117 35.8301 20.026 36.0879 20.0547C36.3457 20.0762 36.5749 20.1084 36.7754 20.1514L36.5498 21.8057C36.3564 21.7555 36.1416 21.7161 35.9053 21.6875C35.6689 21.6589 35.4469 21.6445 35.2393 21.6445C34.7666 21.6445 34.319 21.7412 33.8965 21.9346C33.4811 22.1208 33.1159 22.3929 32.8008 22.751C32.4857 23.1019 32.2386 23.528 32.0596 24.0293C31.8805 24.5234 31.791 25.0749 31.791 25.6836V32H29.9971V20.2266H31.4795L31.6729 22.3965H31.748C31.9915 21.9596 32.2852 21.5622 32.6289 21.2041C32.9727 20.8389 33.3701 20.5488 33.8213 20.334C34.2796 20.1191 34.7881 20.0117 35.3467 20.0117ZM37.1406 20.2266H39.0527L41.6523 27.0586C41.8027 27.4596 41.9424 27.8464 42.0713 28.2188C42.2002 28.584 42.3148 28.9349 42.415 29.2715C42.5153 29.6081 42.5941 29.9339 42.6514 30.249H42.7266C42.8268 29.891 42.9701 29.4219 43.1562 28.8418C43.3424 28.2546 43.543 27.6566 43.7578 27.0479L46.2178 20.2266H48.1406L43.0166 33.7295C42.7445 34.4528 42.4258 35.083 42.0605 35.6201C41.7025 36.1572 41.2656 36.569 40.75 36.8555C40.2344 37.1491 39.6113 37.2959 38.8809 37.2959C38.5443 37.2959 38.2471 37.2744 37.9893 37.2314C37.7314 37.1956 37.5094 37.1527 37.3232 37.1025V35.6738C37.4808 35.7096 37.6706 35.7419 37.8926 35.7705C38.1217 35.7992 38.3581 35.8135 38.6016 35.8135C39.0456 35.8135 39.4287 35.7275 39.751 35.5557C40.0804 35.391 40.3633 35.1475 40.5996 34.8252C40.8359 34.5029 41.04 34.1198 41.2119 33.6758L41.8564 32.0215L37.1406 20.2266ZM68.5186 20.0117C69.8148 20.0117 70.7923 20.3519 71.4512 21.0322C72.11 21.7054 72.4395 22.7904 72.4395 24.2871V32H70.6777V24.373C70.6777 23.4206 70.4701 22.708 70.0547 22.2354C69.6465 21.7555 69.0378 21.5156 68.2285 21.5156C67.0898 21.5156 66.2627 21.8451 65.7471 22.5039C65.2314 23.1628 64.9736 24.1331 64.9736 25.415V32H63.2012V24.373C63.2012 23.7357 63.1081 23.2057 62.9219 22.7832C62.7428 22.3607 62.4707 22.0456 62.1055 21.8379C61.7474 21.623 61.2926 21.5156 60.7412 21.5156C59.9606 21.5156 59.334 21.6768 58.8613 21.999C58.3887 22.3213 58.0449 22.8011 57.8301 23.4385C57.6224 24.0687 57.5186 24.8457 57.5186 25.7695V32H55.7354V20.2266H57.1748L57.4434 21.8916H57.54C57.7764 21.4834 58.0736 21.1396 58.4316 20.8604C58.7897 20.5811 59.1908 20.3698 59.6348 20.2266C60.0788 20.0833 60.5514 20.0117 61.0527 20.0117C61.9479 20.0117 62.6963 20.18 63.2979 20.5166C63.9066 20.846 64.347 21.3509 64.6191 22.0312H64.7158C65.1025 21.3509 65.6325 20.846 66.3057 20.5166C66.9788 20.18 67.7165 20.0117 68.5186 20.0117ZM86.2539 26.0918C86.2539 27.0586 86.1286 27.9215 85.8779 28.6807C85.6273 29.4398 85.2656 30.0807 84.793 30.6035C84.3203 31.1263 83.7474 31.5273 83.0742 31.8066C82.4082 32.0788 81.6527 32.2148 80.8076 32.2148C80.0199 32.2148 79.2965 32.0788 78.6377 31.8066C77.986 31.5273 77.4202 31.1263 76.9404 30.6035C76.4678 30.0807 76.099 29.4398 75.834 28.6807C75.5762 27.9215 75.4473 27.0586 75.4473 26.0918C75.4473 24.8027 75.6657 23.707 76.1025 22.8047C76.5394 21.8952 77.1624 21.2041 77.9717 20.7314C78.7881 20.2516 79.7585 20.0117 80.8828 20.0117C81.957 20.0117 82.8952 20.2516 83.6973 20.7314C84.5065 21.2113 85.1331 21.9059 85.5771 22.8154C86.0283 23.7178 86.2539 24.8099 86.2539 26.0918ZM77.2949 26.0918C77.2949 27.0371 77.4202 27.8571 77.6709 28.5518C77.9215 29.2464 78.3083 29.7835 78.8311 30.1631C79.3538 30.5426 80.027 30.7324 80.8506 30.7324C81.667 30.7324 82.3366 30.5426 82.8594 30.1631C83.3893 29.7835 83.7796 29.2464 84.0303 28.5518C84.2809 27.8571 84.4062 27.0371 84.4062 26.0918C84.4062 25.1536 84.2809 24.3444 84.0303 23.6641C83.7796 22.9766 83.3929 22.4466 82.8701 22.0742C82.3473 21.7018 81.6706 21.5156 80.8398 21.5156C79.6152 21.5156 78.7165 21.9202 78.1436 22.7295C77.5778 23.5387 77.2949 24.6595 77.2949 26.0918ZM94.9121 20.0117C96.3086 20.0117 97.3649 20.3555 98.0811 21.043C98.7972 21.7233 99.1553 22.819 99.1553 24.3301V32H97.3936V24.4482C97.3936 23.4671 97.168 22.7331 96.7168 22.2461C96.2728 21.7591 95.5889 21.5156 94.665 21.5156C93.3617 21.5156 92.445 21.8844 91.915 22.6221C91.3851 23.3597 91.1201 24.4303 91.1201 25.834V32H89.3369V20.2266H90.7764L91.0449 21.9238H91.1416C91.3923 21.5085 91.7109 21.1611 92.0977 20.8818C92.4844 20.5954 92.9176 20.3805 93.3975 20.2373C93.8773 20.0869 94.3822 20.0117 94.9121 20.0117ZM115.612 20.0117C116.909 20.0117 117.886 20.3519 118.545 21.0322C119.204 21.7054 119.533 22.7904 119.533 24.2871V32H117.771V24.373C117.771 23.4206 117.564 22.708 117.148 22.2354C116.74 21.7555 116.132 21.5156 115.322 21.5156C114.184 21.5156 113.356 21.8451 112.841 22.5039C112.325 23.1628 112.067 24.1331 112.067 25.415V32H110.295V24.373C110.295 23.7357 110.202 23.2057 110.016 22.7832C109.837 22.3607 109.564 22.0456 109.199 21.8379C108.841 21.623 108.386 21.5156 107.835 21.5156C107.054 21.5156 106.428 21.6768 105.955 21.999C105.482 22.3213 105.139 22.8011 104.924 23.4385C104.716 24.0687 104.612 24.8457 104.612 25.7695V32H102.829V20.2266H104.269L104.537 21.8916H104.634C104.87 21.4834 105.167 21.1396 105.525 20.8604C105.883 20.5811 106.285 20.3698 106.729 20.2266C107.173 20.0833 107.645 20.0117 108.146 20.0117C109.042 20.0117 109.79 20.18 110.392 20.5166C111 20.846 111.441 21.3509 111.713 22.0312H111.81C112.196 21.3509 112.726 20.846 113.399 20.5166C114.073 20.18 114.81 20.0117 115.612 20.0117ZM127.601 20.0332C129.004 20.0332 130.046 20.3483 130.727 20.9785C131.407 21.6087 131.747 22.6149 131.747 23.9971V32H130.447L130.104 30.2598H130.018C129.688 30.6895 129.344 31.0511 128.986 31.3447C128.628 31.6312 128.213 31.8496 127.74 32C127.275 32.1432 126.702 32.2148 126.021 32.2148C125.305 32.2148 124.668 32.0895 124.109 31.8389C123.558 31.5882 123.121 31.2087 122.799 30.7002C122.484 30.1917 122.326 29.5472 122.326 28.7666C122.326 27.5921 122.792 26.6898 123.723 26.0596C124.654 25.4294 126.072 25.0856 127.977 25.0283L130.007 24.9424V24.2227C130.007 23.2057 129.788 22.4932 129.352 22.085C128.915 21.6768 128.299 21.4727 127.504 21.4727C126.888 21.4727 126.301 21.5622 125.742 21.7412C125.184 21.9202 124.654 22.1315 124.152 22.375L123.604 21.0215C124.134 20.7493 124.743 20.5166 125.431 20.3232C126.118 20.1299 126.841 20.0332 127.601 20.0332ZM129.985 26.1992L128.191 26.2744C126.723 26.3317 125.688 26.5716 125.087 26.9941C124.485 27.4167 124.185 28.0146 124.185 28.7881C124.185 29.4613 124.389 29.959 124.797 30.2812C125.205 30.6035 125.746 30.7646 126.419 30.7646C127.465 30.7646 128.32 30.4746 128.986 29.8945C129.652 29.3145 129.985 28.4443 129.985 27.2842V26.1992ZM139.224 30.7539C139.517 30.7539 139.818 30.7288 140.126 30.6787C140.434 30.6286 140.685 30.5677 140.878 30.4961V31.8818C140.67 31.9749 140.38 32.0537 140.008 32.1182C139.643 32.1826 139.285 32.2148 138.934 32.2148C138.311 32.2148 137.745 32.1074 137.236 31.8926C136.728 31.6706 136.32 31.2982 136.012 30.7754C135.711 30.2526 135.561 29.5293 135.561 28.6055V21.623H133.885V20.7529L135.571 20.0547L136.28 17.498H137.354V20.2266H140.803V21.623H137.354V28.5518C137.354 29.2894 137.523 29.8408 137.859 30.2061C138.203 30.5713 138.658 30.7539 139.224 30.7539ZM145.046 20.2266V32H143.263V20.2266H145.046ZM144.176 15.8223C144.469 15.8223 144.72 15.9189 144.928 16.1123C145.143 16.2985 145.25 16.5921 145.25 16.9932C145.25 17.387 145.143 17.6807 144.928 17.874C144.72 18.0674 144.469 18.1641 144.176 18.1641C143.868 18.1641 143.61 18.0674 143.402 17.874C143.202 17.6807 143.102 17.387 143.102 16.9932C143.102 16.5921 143.202 16.2985 143.402 16.1123C143.61 15.9189 143.868 15.8223 144.176 15.8223ZM153.543 32.2148C152.483 32.2148 151.549 31.9964 150.739 31.5596C149.93 31.1227 149.3 30.4567 148.849 29.5615C148.397 28.6663 148.172 27.5384 148.172 26.1777C148.172 24.7526 148.408 23.5889 148.881 22.6865C149.361 21.777 150.02 21.1038 150.857 20.667C151.695 20.2301 152.648 20.0117 153.715 20.0117C154.302 20.0117 154.868 20.0726 155.412 20.1943C155.964 20.3089 156.415 20.4557 156.766 20.6348L156.229 22.1279C155.87 21.9847 155.455 21.8558 154.982 21.7412C154.517 21.6266 154.08 21.5693 153.672 21.5693C152.855 21.5693 152.175 21.7448 151.631 22.0957C151.094 22.4466 150.689 22.9622 150.417 23.6426C150.152 24.3229 150.02 25.1608 150.02 26.1562C150.02 27.1087 150.148 27.9215 150.406 28.5947C150.671 29.2679 151.062 29.7835 151.577 30.1416C152.1 30.4925 152.752 30.668 153.532 30.668C154.155 30.668 154.717 30.6035 155.219 30.4746C155.72 30.3385 156.175 30.181 156.583 30.002V31.5918C156.189 31.7923 155.749 31.9463 155.262 32.0537C154.782 32.1611 154.209 32.2148 153.543 32.2148ZM166.992 28.7773C166.992 29.5293 166.802 30.1631 166.423 30.6787C166.05 31.1872 165.513 31.5703 164.812 31.8281C164.117 32.0859 163.286 32.2148 162.319 32.2148C161.496 32.2148 160.783 32.1504 160.182 32.0215C159.58 31.8926 159.054 31.71 158.603 31.4736V29.8301C159.082 30.0664 159.655 30.2812 160.321 30.4746C160.987 30.668 161.668 30.7646 162.362 30.7646C163.379 30.7646 164.117 30.5999 164.575 30.2705C165.034 29.9411 165.263 29.4935 165.263 28.9277C165.263 28.6055 165.17 28.3226 164.983 28.0791C164.804 27.8285 164.5 27.5885 164.07 27.3594C163.641 27.123 163.046 26.8652 162.287 26.5859C161.535 26.2995 160.883 26.0166 160.332 25.7373C159.788 25.4508 159.365 25.1035 159.064 24.6953C158.771 24.2871 158.624 23.7572 158.624 23.1055C158.624 22.11 159.025 21.3473 159.827 20.8174C160.636 20.2803 161.696 20.0117 163.007 20.0117C163.716 20.0117 164.378 20.0833 164.994 20.2266C165.617 20.3626 166.197 20.5488 166.734 20.7852L166.133 22.2139C165.646 22.0062 165.127 21.8307 164.575 21.6875C164.024 21.5443 163.462 21.4727 162.889 21.4727C162.065 21.4727 161.431 21.6087 160.987 21.8809C160.55 22.153 160.332 22.5254 160.332 22.998C160.332 23.3633 160.432 23.6641 160.633 23.9004C160.84 24.1367 161.17 24.3587 161.621 24.5664C162.072 24.7741 162.667 25.0176 163.404 25.2969C164.142 25.569 164.779 25.8519 165.316 26.1455C165.854 26.432 166.265 26.7829 166.552 27.1982C166.845 27.6064 166.992 28.1328 166.992 28.7773Z" fill="white"/>
<rect x="0.5" y="0.5" width="185" height="49" stroke="black"/>
</svg>
