<svg width="25" height="25" viewBox="0 0 25 25" fill="none" xmlns="http://www.w3.org/2000/svg">
<path d="M21.25 0H3.75C1.67893 0 0 1.67893 0 3.75V21.25C0 23.3211 1.67893 25 3.75 25H21.25C23.3211 25 25 23.3211 25 21.25V3.75C25 1.67893 23.3211 0 21.25 0Z" fill="#1877F2"/>
<path d="M17.3633 16.1133L17.9199 12.5H14.4531V10.1562C14.4531 9.16992 14.9365 8.20312 16.4893 8.20312H18.0664V5.12695C18.0664 5.12695 16.6357 4.88281 15.2686 4.88281C12.4121 4.88281 10.5469 6.61133 10.5469 9.74609V12.5H7.37305V16.1133H10.5469V25H14.4531V16.1133H17.3633Z" fill="white"/>
</svg>
