<svg width="107" height="43" viewBox="0 0 107 43" fill="none" xmlns="http://www.w3.org/2000/svg">
<rect x="7" y="8" width="91" height="29" rx="3" fill="black"/>
<path d="M34.3636 15.0625C34.3239 14.9242 34.268 14.8021 34.196 14.696C34.1241 14.5881 34.036 14.4972 33.9318 14.4233C33.8295 14.3475 33.7121 14.2898 33.5795 14.25C33.4489 14.2102 33.304 14.1903 33.1449 14.1903C32.8475 14.1903 32.5862 14.2642 32.3608 14.4119C32.1373 14.5597 31.9631 14.7746 31.8381 15.0568C31.7131 15.3371 31.6506 15.6799 31.6506 16.0852C31.6506 16.4905 31.7121 16.8352 31.8352 17.1193C31.9583 17.4034 32.1326 17.6203 32.358 17.7699C32.5833 17.9176 32.8494 17.9915 33.1562 17.9915C33.4347 17.9915 33.6723 17.9422 33.8693 17.8438C34.0682 17.7434 34.2197 17.6023 34.3239 17.4205C34.4299 17.2386 34.483 17.0237 34.483 16.7756L34.733 16.8125H33.233V15.8864H35.6676V16.6193C35.6676 17.1307 35.5597 17.5701 35.3438 17.9375C35.1278 18.303 34.8305 18.5852 34.4517 18.7841C34.0729 18.9811 33.6392 19.0795 33.1506 19.0795C32.6051 19.0795 32.1259 18.9593 31.7131 18.7188C31.3002 18.4763 30.9782 18.1326 30.7472 17.6875C30.518 17.2405 30.4034 16.7102 30.4034 16.0966C30.4034 15.625 30.4716 15.2045 30.608 14.8352C30.7462 14.464 30.9394 14.1496 31.1875 13.892C31.4356 13.6345 31.7244 13.4384 32.054 13.304C32.3835 13.1695 32.7405 13.1023 33.125 13.1023C33.4545 13.1023 33.7614 13.1506 34.0455 13.2472C34.3295 13.3419 34.5814 13.4763 34.8011 13.6506C35.0227 13.8248 35.2036 14.0322 35.3438 14.2727C35.4839 14.5114 35.5739 14.7746 35.6136 15.0625H34.3636ZM36.5916 19V13.1818H40.5121V14.196H37.8217V15.5824H40.3104V16.5966H37.8217V17.9858H40.5234V19H36.5916ZM41.2685 14.196V13.1818H46.0469V14.196H44.2656V19H43.0497V14.196H41.2685ZM49.9155 13.1818V19H48.6854V13.1818H49.9155ZM50.706 14.196V13.1818H55.4844V14.196H53.7031V19H52.4872V14.196H50.706ZM63.4695 16.0909C63.4695 16.7254 63.3492 17.2652 63.1087 17.7102C62.87 18.1553 62.5443 18.4953 62.1314 18.7301C61.7204 18.9631 61.2583 19.0795 60.745 19.0795C60.228 19.0795 59.764 18.9621 59.353 18.7273C58.942 18.4924 58.6172 18.1525 58.3786 17.7074C58.1399 17.2623 58.0206 16.7235 58.0206 16.0909C58.0206 15.4564 58.1399 14.9167 58.3786 14.4716C58.6172 14.0265 58.942 13.6875 59.353 13.4545C59.764 13.2197 60.228 13.1023 60.745 13.1023C61.2583 13.1023 61.7204 13.2197 62.1314 13.4545C62.5443 13.6875 62.87 14.0265 63.1087 14.4716C63.3492 14.9167 63.4695 15.4564 63.4695 16.0909ZM62.2223 16.0909C62.2223 15.6799 62.1607 15.3333 62.0376 15.0511C61.9164 14.7689 61.745 14.5549 61.5234 14.4091C61.3018 14.2633 61.0424 14.1903 60.745 14.1903C60.4477 14.1903 60.1882 14.2633 59.9666 14.4091C59.745 14.5549 59.5727 14.7689 59.4496 15.0511C59.3284 15.3333 59.2678 15.6799 59.2678 16.0909C59.2678 16.5019 59.3284 16.8485 59.4496 17.1307C59.5727 17.4129 59.745 17.6269 59.9666 17.7727C60.1882 17.9186 60.4477 17.9915 60.745 17.9915C61.0424 17.9915 61.3018 17.9186 61.5234 17.7727C61.745 17.6269 61.9164 17.4129 62.0376 17.1307C62.1607 16.8485 62.2223 16.5019 62.2223 16.0909ZM69.2472 13.1818V19H68.1847L65.6534 15.3381H65.6108V19H64.3807V13.1818H65.4602L67.9716 16.8409H68.0227V13.1818H69.2472Z" fill="#F5F5F5"/>
<path d="M36 26.5859C35.9453 26.3958 35.8685 26.2279 35.7695 26.082C35.6706 25.9336 35.5495 25.8086 35.4063 25.707C35.2656 25.6029 35.1042 25.5234 34.9219 25.4688C34.7422 25.4141 34.543 25.3867 34.3242 25.3867C33.9154 25.3867 33.556 25.4883 33.2461 25.6914C32.9388 25.8945 32.6992 26.1901 32.5273 26.5781C32.3555 26.9635 32.2695 27.4349 32.2695 27.9922C32.2695 28.5495 32.3542 29.0234 32.5234 29.4141C32.6927 29.8047 32.9323 30.1029 33.2422 30.3086C33.5521 30.5117 33.918 30.6133 34.3398 30.6133C34.7227 30.6133 35.0495 30.5456 35.3203 30.4102C35.5938 30.2721 35.8021 30.0781 35.9453 29.8281C36.0911 29.5781 36.1641 29.2826 36.1641 28.9414L36.5078 28.9922H34.4453V27.7187H37.793V28.7266C37.793 29.4297 37.6445 30.0339 37.3477 30.5391C37.0508 31.0417 36.6419 31.4297 36.1211 31.7031C35.6003 31.974 35.0039 32.1094 34.332 32.1094C33.582 32.1094 32.9232 31.944 32.3555 31.6133C31.7878 31.2799 31.3451 30.8073 31.0273 30.1953C30.7122 29.5807 30.5547 28.8516 30.5547 28.0078C30.5547 27.3594 30.6484 26.7812 30.8359 26.2734C31.026 25.763 31.2917 25.3307 31.6328 24.9766C31.974 24.6224 32.3711 24.3529 32.8242 24.168C33.2773 23.9831 33.7682 23.8906 34.2969 23.8906C34.75 23.8906 35.1719 23.957 35.5625 24.0898C35.9531 24.2201 36.2995 24.4049 36.6016 24.6445C36.9063 24.8841 37.1549 25.1693 37.3477 25.5C37.5404 25.8281 37.6641 26.1901 37.7188 26.5859H36ZM41.7432 32.1172C41.1364 32.1172 40.6117 31.9883 40.1689 31.7305C39.7288 31.4701 39.389 31.1081 39.1494 30.6445C38.9098 30.1784 38.79 29.638 38.79 29.0234C38.79 28.4036 38.9098 27.862 39.1494 27.3984C39.389 26.9323 39.7288 26.5703 40.1689 26.3125C40.6117 26.0521 41.1364 25.9219 41.7432 25.9219C42.3499 25.9219 42.8734 26.0521 43.3135 26.3125C43.7562 26.5703 44.0973 26.9323 44.3369 27.3984C44.5765 27.862 44.6963 28.4036 44.6963 29.0234C44.6963 29.638 44.5765 30.1784 44.3369 30.6445C44.0973 31.1081 43.7562 31.4701 43.3135 31.7305C42.8734 31.9883 42.3499 32.1172 41.7432 32.1172ZM41.751 30.8281C42.027 30.8281 42.2575 30.75 42.4424 30.5938C42.6273 30.4349 42.7666 30.2187 42.8604 29.9453C42.9567 29.6719 43.0049 29.3607 43.0049 29.0117C43.0049 28.6628 42.9567 28.3516 42.8604 28.0781C42.7666 27.8047 42.6273 27.5885 42.4424 27.4297C42.2575 27.2708 42.027 27.1914 41.751 27.1914C41.4723 27.1914 41.238 27.2708 41.0479 27.4297C40.8604 27.5885 40.7184 27.8047 40.6221 28.0781C40.5283 28.3516 40.4814 28.6628 40.4814 29.0117C40.4814 29.3607 40.5283 29.6719 40.6221 29.9453C40.7184 30.2187 40.8604 30.4349 41.0479 30.5938C41.238 30.75 41.4723 30.8281 41.751 30.8281ZM48.4893 32.1172C47.8825 32.1172 47.3577 31.9883 46.915 31.7305C46.4749 31.4701 46.1351 31.1081 45.8955 30.6445C45.6559 30.1784 45.5361 29.638 45.5361 29.0234C45.5361 28.4036 45.6559 27.862 45.8955 27.3984C46.1351 26.9323 46.4749 26.5703 46.915 26.3125C47.3577 26.0521 47.8825 25.9219 48.4893 25.9219C49.096 25.9219 49.6195 26.0521 50.0596 26.3125C50.5023 26.5703 50.8434 26.9323 51.083 27.3984C51.3226 27.862 51.4424 28.4036 51.4424 29.0234C51.4424 29.638 51.3226 30.1784 51.083 30.6445C50.8434 31.1081 50.5023 31.4701 50.0596 31.7305C49.6195 31.9883 49.096 32.1172 48.4893 32.1172ZM48.4971 30.8281C48.7731 30.8281 49.0036 30.75 49.1885 30.5938C49.3734 30.4349 49.5127 30.2187 49.6064 29.9453C49.7028 29.6719 49.751 29.3607 49.751 29.0117C49.751 28.6628 49.7028 28.3516 49.6064 28.0781C49.5127 27.8047 49.3734 27.5885 49.1885 27.4297C49.0036 27.2708 48.7731 27.1914 48.4971 27.1914C48.2184 27.1914 47.984 27.2708 47.7939 27.4297C47.6064 27.5885 47.4645 27.8047 47.3682 28.0781C47.2744 28.3516 47.2275 28.6628 47.2275 29.0117C47.2275 29.3607 47.2744 29.6719 47.3682 29.9453C47.4645 30.2187 47.6064 30.4349 47.7939 30.5938C47.984 30.75 48.2184 30.8281 48.4971 30.8281ZM55.2275 34.375C54.6885 34.375 54.2262 34.3008 53.8408 34.1523C53.458 34.0065 53.1533 33.8073 52.9268 33.5547C52.7002 33.3021 52.5531 33.0182 52.4854 32.7031L54.0244 32.4961C54.0713 32.6159 54.1455 32.7279 54.2471 32.832C54.3486 32.9362 54.4827 33.0195 54.6494 33.082C54.8187 33.1471 55.0244 33.1797 55.2666 33.1797C55.6286 33.1797 55.9268 33.0911 56.1611 32.9141C56.3981 32.7396 56.5166 32.4466 56.5166 32.0352V30.9375H56.4463C56.3734 31.1042 56.264 31.2617 56.1182 31.4102C55.9723 31.5586 55.7848 31.6797 55.5557 31.7734C55.3265 31.8672 55.0531 31.9141 54.7354 31.9141C54.2848 31.9141 53.8747 31.8099 53.5049 31.6016C53.1377 31.3906 52.8447 31.069 52.626 30.6367C52.4098 30.2018 52.3018 29.6523 52.3018 28.9883C52.3018 28.3086 52.4124 27.7409 52.6338 27.2852C52.8551 26.8294 53.1494 26.4883 53.5166 26.2617C53.8864 26.0352 54.2913 25.9219 54.7314 25.9219C55.0674 25.9219 55.3486 25.9792 55.5752 26.0938C55.8018 26.2057 55.984 26.3464 56.1221 26.5156C56.2627 26.6823 56.3708 26.8464 56.4463 27.0078H56.5088V26H58.1611V32.0586C58.1611 32.569 58.0361 32.9961 57.7861 33.3398C57.5361 33.6836 57.1898 33.9414 56.7471 34.1133C56.307 34.2878 55.8005 34.375 55.2275 34.375ZM55.2627 30.6641C55.5309 30.6641 55.7575 30.5977 55.9424 30.4648C56.1299 30.3294 56.2731 30.1367 56.3721 29.8867C56.4736 29.6341 56.5244 29.332 56.5244 28.9805C56.5244 28.6289 56.4749 28.3242 56.376 28.0664C56.277 27.806 56.1338 27.6042 55.9463 27.4609C55.7588 27.3177 55.5309 27.2461 55.2627 27.2461C54.9893 27.2461 54.7588 27.3203 54.5713 27.4687C54.3838 27.6146 54.2419 27.8177 54.1455 28.0781C54.0492 28.3385 54.001 28.6393 54.001 28.9805C54.001 29.3268 54.0492 29.6263 54.1455 29.8789C54.2445 30.1289 54.3864 30.3229 54.5713 30.4609C54.7588 30.5964 54.9893 30.6641 55.2627 30.6641ZM61.1494 24V32H59.4854V24H61.1494ZM65.2168 32.1172C64.5996 32.1172 64.0684 31.9922 63.623 31.7422C63.1803 31.4896 62.8392 31.1328 62.5996 30.6719C62.36 30.2083 62.2402 29.6602 62.2402 29.0273C62.2402 28.4102 62.36 27.8685 62.5996 27.4023C62.8392 26.9362 63.1764 26.5729 63.6113 26.3125C64.0488 26.0521 64.5618 25.9219 65.1504 25.9219C65.5462 25.9219 65.9147 25.9857 66.2559 26.1133C66.5996 26.2383 66.8991 26.4271 67.1543 26.6797C67.4121 26.9323 67.6126 27.25 67.7559 27.6328C67.8991 28.013 67.9707 28.4583 67.9707 28.9687V29.4258H62.9043V28.3945H66.4043C66.4043 28.1549 66.3522 27.9427 66.248 27.7578C66.1439 27.5729 65.9993 27.4284 65.8145 27.3242C65.6322 27.2174 65.4199 27.1641 65.1777 27.1641C64.9251 27.1641 64.7012 27.2227 64.5059 27.3398C64.3132 27.4544 64.1621 27.6094 64.0527 27.8047C63.9434 27.9974 63.8874 28.2122 63.8848 28.4492V29.4297C63.8848 29.7266 63.9395 29.9831 64.0488 30.1992C64.1608 30.4154 64.3184 30.582 64.5215 30.6992C64.7246 30.8164 64.9655 30.875 65.2441 30.875C65.429 30.875 65.5983 30.849 65.752 30.7969C65.9056 30.7448 66.0371 30.6667 66.1465 30.5625C66.2559 30.4583 66.3392 30.3307 66.3965 30.1797L67.9355 30.2812C67.8574 30.651 67.6973 30.974 67.4551 31.25C67.2155 31.5234 66.9056 31.737 66.5254 31.8906C66.1478 32.0417 65.7116 32.1172 65.2168 32.1172ZM71.6338 32V24H74.79C75.3968 24 75.9137 24.1159 76.3408 24.3477C76.7679 24.5768 77.0934 24.8958 77.3174 25.3047C77.5439 25.7109 77.6572 26.1797 77.6572 26.7109C77.6572 27.2422 77.5426 27.7109 77.3135 28.1172C77.0843 28.5234 76.7523 28.8398 76.3174 29.0664C75.8851 29.293 75.3617 29.4062 74.7471 29.4062H72.7354V28.0508H74.4736C74.7992 28.0508 75.0674 27.9948 75.2783 27.8828C75.4919 27.7682 75.6507 27.6107 75.7549 27.4102C75.8617 27.207 75.915 26.974 75.915 26.7109C75.915 26.4453 75.8617 26.2135 75.7549 26.0156C75.6507 25.8151 75.4919 25.6602 75.2783 25.5508C75.0648 25.4388 74.7939 25.3828 74.4658 25.3828H73.3252V32H71.6338ZM80.3887 24V32H78.7246V24H80.3887ZM83.4326 32.1133C83.0498 32.1133 82.7087 32.0469 82.4092 31.9141C82.1097 31.7786 81.8727 31.5794 81.6982 31.3164C81.5264 31.0508 81.4404 30.7201 81.4404 30.3242C81.4404 29.9909 81.5016 29.7109 81.624 29.4844C81.7464 29.2578 81.9131 29.0755 82.124 28.9375C82.335 28.7995 82.5745 28.6953 82.8428 28.625C83.1136 28.5547 83.3975 28.5052 83.6943 28.4766C84.0433 28.4401 84.3245 28.4062 84.5381 28.375C84.7516 28.3411 84.9066 28.2917 85.0029 28.2266C85.0993 28.1615 85.1475 28.0651 85.1475 27.9375V27.9141C85.1475 27.6667 85.0693 27.4753 84.9131 27.3398C84.7594 27.2044 84.5407 27.1367 84.2568 27.1367C83.9574 27.1367 83.7191 27.2031 83.542 27.3359C83.3649 27.4661 83.2477 27.6302 83.1904 27.8281L81.6514 27.7031C81.7295 27.3385 81.8831 27.0234 82.1123 26.7578C82.3415 26.4896 82.637 26.2839 82.999 26.1406C83.3636 25.9948 83.7855 25.9219 84.2646 25.9219C84.598 25.9219 84.917 25.9609 85.2217 26.0391C85.529 26.1172 85.8011 26.2383 86.0381 26.4023C86.2777 26.5664 86.4665 26.7773 86.6045 27.0352C86.7425 27.2904 86.8115 27.5964 86.8115 27.9531V32H85.2334V31.168H85.1865C85.0902 31.3555 84.9613 31.5208 84.7998 31.6641C84.6383 31.8047 84.4443 31.9154 84.2178 31.9961C83.9912 32.0742 83.7295 32.1133 83.4326 32.1133ZM83.9092 30.9648C84.154 30.9648 84.3701 30.9167 84.5576 30.8203C84.7451 30.7214 84.8923 30.5885 84.999 30.4219C85.1058 30.2552 85.1592 30.0664 85.1592 29.8555V29.2188C85.1071 29.2526 85.0355 29.2839 84.9443 29.3125C84.8558 29.3385 84.7555 29.3633 84.6436 29.3867C84.5316 29.4076 84.4196 29.4271 84.3076 29.4453C84.1956 29.4609 84.0941 29.4753 84.0029 29.4883C83.8076 29.5169 83.637 29.5625 83.4912 29.625C83.3454 29.6875 83.2321 29.7721 83.1514 29.8789C83.0706 29.9831 83.0303 30.1133 83.0303 30.2695C83.0303 30.4961 83.1123 30.6693 83.2764 30.7891C83.443 30.9062 83.654 30.9648 83.9092 30.9648ZM88.915 34.25C88.7041 34.25 88.5062 34.2331 88.3213 34.1992C88.139 34.168 87.988 34.1276 87.8682 34.0781L88.2432 32.8359C88.4385 32.8958 88.6143 32.9284 88.7705 32.9336C88.9294 32.9388 89.0661 32.9023 89.1807 32.8242C89.2979 32.7461 89.3929 32.6133 89.4658 32.4258L89.5635 32.1719L87.4111 26H89.1611L90.4033 30.4062H90.4658L91.7197 26H93.4814L91.1494 32.6484C91.0374 32.9714 90.8851 33.2526 90.6924 33.4922C90.5023 33.7344 90.2614 33.9206 89.9697 34.0508C89.6781 34.1836 89.3265 34.25 88.915 34.25Z" fill="#F5F5F5"/>
<path d="M24.7551 24.9785C27.2916 23.5857 29.2146 22.5244 29.3804 22.4419C29.9106 22.1599 30.4582 21.4136 29.3804 20.8339C29.0324 20.6517 27.1588 19.6234 24.7551 18.2974L21.4227 21.6627L24.7551 24.9785Z" fill="#FFD900"/>
<path d="M21.4227 21.6626L10.8123 32.3564C11.0613 32.3894 11.3425 32.3234 11.674 32.1411C12.37 31.7602 19.7479 27.731 24.7551 24.9793L21.4227 21.6626Z" fill="#F43249"/>
<path d="M21.4226 21.6626L24.755 18.3138C24.755 18.3138 12.4202 11.5823 11.6739 11.1849C11.3927 11.0183 11.0777 10.9688 10.7957 11.0183L21.4226 21.6626Z" fill="#00EE76"/>
<path d="M21.4228 21.6624L10.7958 11.0181C10.3645 11.1178 10 11.4988 10 12.2781V31.0961C10 31.8094 10.282 32.3232 10.8123 32.3726L21.4228 21.6624Z" fill="#00D3FF"/>
</svg>
