<svg width="27" height="26" viewBox="0 0 27 26" fill="none" xmlns="http://www.w3.org/2000/svg">
<path d="M20.6169 0H6.38306C3.41008 0 1 2.41008 1 5.38306V19.6169C1 22.5899 3.41008 25 6.38306 25H20.6169C23.5899 25 26 22.5899 26 19.6169V5.38306C26 2.41008 23.5899 0 20.6169 0Z" fill="white" stroke="#C4CFE3" stroke-width="0.603682"/>
<path d="M7.19742 18.1356H9.5391V12.4487L6.19385 9.9397V17.1321C6.19385 17.6874 6.64376 18.1356 7.19742 18.1356Z" fill="#4285F4"/>
<path d="M17.5676 18.1356H19.9093C20.4647 18.1356 20.9129 17.6857 20.9129 17.1321V9.9397L17.5676 12.4487" fill="#34A853"/>
<path d="M17.5676 8.09996V12.4488L20.9129 9.93984V8.60174C20.9129 7.36063 19.4962 6.6531 18.5043 7.39743" fill="#FBBC04"/>
<path d="M9.53943 12.4487V8.09985L13.5538 11.1106L17.5681 8.09985V12.4487L13.5538 15.4595" fill="#EA4335"/>
<path d="M6.19385 8.60174V9.93984L9.5391 12.4488V8.09996L8.60242 7.39743C7.60888 6.6531 6.19385 7.36063 6.19385 8.60174Z" fill="#C5221F"/>
</svg>
